<svg width="570" height="491" viewBox="0 0 570 491" fill="none" xmlns="http://www.w3.org/2000/svg">
<path opacity="0.0344828" d="M460.274 453.517L339.834 352.456L487.575 298.682L460.274 453.517Z" stroke="white" stroke-width="2"/>
<path opacity="0.0689655" d="M449.15 483.265L358.971 354.475L515.596 340.773L449.15 483.265Z" stroke="white" stroke-width="2"/>
<path opacity="0.103448" d="M429.086 509.909L375.313 362.168L530.147 389.469L429.086 509.909Z" stroke="white" stroke-width="2"/>
<path opacity="0.137931" d="M401.189 531.241L387.486 374.616L529.979 441.062L401.189 531.241Z" stroke="white" stroke-width="2"/>
<path opacity="0.172414" d="M367.101 545.413L394.403 390.579L514.843 491.64L367.101 545.413Z" stroke="white" stroke-width="2"/>
<path opacity="0.206897" d="M328.886 551.068L395.331 408.576L485.511 537.366L328.886 551.068Z" stroke="white" stroke-width="2"/>
<path opacity="0.241379" d="M288.889 547.428L389.95 426.988L443.723 574.73L288.889 547.428Z" stroke="white" stroke-width="2"/>
<path opacity="0.275862" d="M249.576 534.348L378.366 444.168L392.069 600.793L249.576 534.348Z" stroke="white" stroke-width="2"/>
<path opacity="0.310345" d="M213.368 512.326L361.109 458.553L333.808 613.387L213.368 512.326Z" stroke="white" stroke-width="2"/>
<path opacity="0.344828" d="M182.473 482.472L339.097 468.769L272.652 611.262L182.473 482.472Z" stroke="white" stroke-width="2"/>
<path opacity="0.37931" d="M158.736 446.427L313.571 473.728L212.51 594.168L158.736 446.427Z" stroke="white" stroke-width="2"/>
<path opacity="0.413793" d="M143.517 406.254L286.01 472.7L157.22 562.879L143.517 406.254Z" stroke="white" stroke-width="2"/>
<path opacity="0.448276" d="M137.594 364.3L258.034 465.361L110.292 519.135L137.594 364.3Z" stroke="white" stroke-width="2"/>
<path opacity="0.482759" d="M141.11 323.031L231.29 451.82L74.6647 465.523L141.11 323.031Z" stroke="white" stroke-width="2"/>
<path opacity="0.517241" d="M153.567 284.865L207.341 432.607L52.5062 405.305L153.567 284.865Z" stroke="white" stroke-width="2"/>
<path opacity="0.551724" d="M173.858 252.013L187.561 408.638L45.0681 342.192L173.858 252.013Z" stroke="white" stroke-width="2"/>
<path opacity="0.586207" d="M200.339 226.319L173.037 381.154L52.5975 280.093L200.339 226.319Z" stroke="white" stroke-width="2"/>
<path opacity="0.62069" d="M230.947 209.143L164.502 351.636L74.3223 222.846L230.947 209.143Z" stroke="white" stroke-width="2"/>
<path opacity="0.655172" d="M263.338 201.263L162.276 321.703L108.503 173.961L263.338 201.263Z" stroke="white" stroke-width="2"/>
<path opacity="0.689655" d="M295.043 202.822L166.254 293.001L152.551 136.377L295.043 202.822Z" stroke="white" stroke-width="2"/>
<path opacity="0.724138" d="M323.645 213.322L175.903 267.095L203.205 112.261L323.645 213.322Z" stroke="white" stroke-width="2"/>
<path opacity="0.758621" d="M346.933 231.655L190.308 245.358L256.754 102.865L346.933 231.655Z" stroke="white" stroke-width="2"/>
<path opacity="0.793103" d="M363.063 256.179L208.228 228.877L309.289 108.437L363.063 256.179Z" stroke="white" stroke-width="2"/>
<path opacity="0.827586" d="M370.675 284.83L228.182 218.385L356.972 128.205L370.675 284.83Z" stroke="white" stroke-width="2"/>
<path opacity="0.862069" d="M368.991 315.263L248.551 214.202L396.293 160.429L368.991 315.263Z" stroke="white" stroke-width="2"/>
<path opacity="0.896552" d="M357.868 345.012L267.689 216.222L424.313 202.519L357.868 345.012Z" stroke="white" stroke-width="2"/>
<path opacity="0.931035" d="M337.804 371.656L284.03 223.915L438.865 251.216L337.804 371.656Z" stroke="white" stroke-width="2"/>
<path opacity="0.965517" d="M309.907 392.987L296.204 236.363L438.696 302.808L309.907 392.987Z" stroke="white" stroke-width="2"/>
<path d="M275.819 407.16L303.12 252.325L423.56 353.386L275.819 407.16Z" stroke="white" stroke-width="2"/>
</svg>
