<svg width="536" height="332" viewBox="0 0 536 332" fill="none" xmlns="http://www.w3.org/2000/svg">
<rect opacity="0.0344828" x="85" y="253" width="447" height="195" stroke="white" stroke-width="2"/>
<rect opacity="0.0689655" x="82" y="244" width="447" height="195" stroke="white" stroke-width="2"/>
<rect opacity="0.103448" x="79" y="235" width="447" height="195" stroke="white" stroke-width="2"/>
<rect opacity="0.137931" x="76" y="226" width="447" height="195" stroke="white" stroke-width="2"/>
<rect opacity="0.172414" x="73" y="217" width="447" height="195" stroke="white" stroke-width="2"/>
<rect opacity="0.206897" x="70" y="208" width="447" height="195" stroke="white" stroke-width="2"/>
<rect opacity="0.241379" x="67" y="199" width="447" height="195" stroke="white" stroke-width="2"/>
<rect opacity="0.275862" x="64" y="190" width="447" height="195" stroke="white" stroke-width="2"/>
<rect opacity="0.310345" x="61" y="181" width="447" height="195" stroke="white" stroke-width="2"/>
<rect opacity="0.344828" x="58" y="172" width="447" height="195" stroke="white" stroke-width="2"/>
<rect opacity="0.37931" x="55" y="163" width="447" height="195" stroke="white" stroke-width="2"/>
<rect opacity="0.413793" x="52" y="154" width="447" height="195" stroke="white" stroke-width="2"/>
<rect opacity="0.448276" x="49" y="145" width="447" height="195" stroke="white" stroke-width="2"/>
<rect opacity="0.482759" x="46" y="136" width="447" height="195" stroke="white" stroke-width="2"/>
<rect opacity="0.517241" x="43" y="127" width="447" height="195" stroke="white" stroke-width="2"/>
<rect opacity="0.551724" x="40" y="118" width="447" height="195" stroke="white" stroke-width="2"/>
<rect opacity="0.586207" x="37" y="109" width="447" height="195" stroke="white" stroke-width="2"/>
<rect opacity="0.62069" x="34" y="100" width="447" height="195" stroke="white" stroke-width="2"/>
<rect opacity="0.655172" x="31" y="91" width="447" height="195" stroke="white" stroke-width="2"/>
<rect opacity="0.689655" x="28" y="82" width="447" height="195" stroke="white" stroke-width="2"/>
<rect opacity="0.724138" x="25" y="73" width="447" height="195" stroke="white" stroke-width="2"/>
<rect opacity="0.758621" x="22" y="64" width="447" height="195" stroke="white" stroke-width="2"/>
<rect opacity="0.793103" x="19" y="55" width="447" height="195" stroke="white" stroke-width="2"/>
<rect opacity="0.827586" x="16" y="46" width="447" height="195" stroke="white" stroke-width="2"/>
<rect opacity="0.862069" x="13" y="37" width="447" height="195" stroke="white" stroke-width="2"/>
<rect opacity="0.896552" x="10" y="28" width="447" height="195" stroke="white" stroke-width="2"/>
<rect opacity="0.931035" x="7" y="19" width="447" height="195" stroke="white" stroke-width="2"/>
<rect opacity="0.965517" x="4" y="10" width="447" height="195" stroke="white" stroke-width="2"/>
<rect x="1" y="1" width="447" height="195" stroke="white" stroke-width="2"/>
</svg>
