<svg width="90" height="90" viewBox="0 0 90 90" fill="none" xmlns="http://www.w3.org/2000/svg">
<circle cx="45" cy="45" r="44" fill="#FF35C7" stroke="#C4C4C4" stroke-width="2"/>
<path d="M53.425 63.0224L63.025 53.4224" stroke="white" stroke-width="3" stroke-linecap="round" stroke-linejoin="round"/>
<path d="M26.6801 36.6799L36.6801 26.6799" stroke="white" stroke-width="3" stroke-linecap="round" stroke-linejoin="round"/>
<path d="M45.7101 35.7099L33.9651 23.9649C33.5007 23.5004 32.9495 23.132 32.3427 22.8806C31.7359 22.6292 31.0856 22.4998 30.4288 22.4998C29.772 22.4998 29.1217 22.6292 28.5149 22.8806C27.9082 23.132 27.3569 23.5004 26.8926 23.9649L23.9651 26.8924C23.5006 27.3568 23.1321 27.908 22.8807 28.5148C22.6293 29.1216 22.4999 29.7719 22.4999 30.4287C22.4999 31.0855 22.6293 31.7358 22.8807 32.3426C23.1321 32.9493 23.5006 33.5006 23.9651 33.9649L36.2301 46.2299" stroke="white" stroke-width="3" stroke-linecap="round" stroke-linejoin="round"/>
<path d="M54.29 44.29L61.555 51.555C62.6526 52.6532 63.4795 53.9919 63.97 55.465L67.435 65.8525C67.5089 66.073 67.5199 66.3097 67.4667 66.536C67.4134 66.7623 67.2981 66.9693 67.1337 67.1338C66.9693 67.2982 66.7623 67.4135 66.536 67.4667C66.3097 67.5199 66.073 67.5089 65.8525 67.435L55.465 63.97C53.9919 63.4795 52.6532 62.6527 51.555 61.555L43.77 53.77" stroke="white" stroke-width="3" stroke-linecap="round" stroke-linejoin="round"/>
<path d="M31.9501 52.5999C35.4178 46.8614 39.62 41.6003 44.4501 36.9499C54.5251 26.8724 64.6201 20.6299 66.9951 23.0049C69.3701 25.3799 63.1251 35.4724 53.0476 45.5499C48.3974 50.3803 43.1363 54.5825 37.3976 58.0499" stroke="white" stroke-width="3" stroke-linecap="round" stroke-linejoin="round"/>
<path fill-rule="evenodd" clip-rule="evenodd" d="M32.415 65.72L25.61 67.42C25.1913 67.5248 24.7526 67.5193 24.3367 67.4042C23.9207 67.2892 23.5416 67.0683 23.2363 66.7633C22.9309 66.4582 22.7098 66.0793 22.5944 65.6634C22.4789 65.2475 22.4731 64.8088 22.5775 64.39L24.2825 57.5675C24.6455 56.1174 25.4835 54.8306 26.6629 53.9122C27.8423 52.9937 29.2952 52.4966 30.79 52.5H30.8075C32.5843 52.504 34.2869 53.2128 35.5416 54.4708C36.7964 55.7288 37.5007 57.4332 37.5 59.21C37.5 62.29 35.4 64.9725 32.415 65.72Z" stroke="white" stroke-width="3" stroke-linecap="round" stroke-linejoin="round"/>
</svg>
