<svg width="570" height="524" viewBox="0 0 570 524" fill="none" xmlns="http://www.w3.org/2000/svg">
<rect opacity="0.0526316" x="221.874" y="530.942" width="299" height="299" transform="rotate(135 221.874 530.942)" stroke="white" stroke-width="2"/>
<rect opacity="0.105263" x="225.431" y="530.697" width="294" height="294" transform="rotate(145 225.431 530.697)" stroke="white" stroke-width="2"/>
<rect opacity="0.157895" x="229.03" y="530.459" width="289" height="289" transform="rotate(155 229.03 530.459)" stroke="white" stroke-width="2"/>
<rect opacity="0.210526" x="232.67" y="530.235" width="284" height="284" transform="rotate(165 232.67 530.235)" stroke="white" stroke-width="2"/>
<rect opacity="0.263158" x="236.347" y="530.033" width="279" height="279" transform="rotate(175 236.347 530.033)" stroke="white" stroke-width="2"/>
<rect opacity="0.315789" x="240.057" y="529.859" width="274" height="274" transform="rotate(-175 240.057 529.859)" stroke="white" stroke-width="2"/>
<rect opacity="0.368421" x="243.794" y="529.718" width="269" height="269" transform="rotate(-165 243.794 529.718)" stroke="white" stroke-width="2"/>
<rect opacity="0.421053" x="247.553" y="529.614" width="264" height="264" transform="rotate(-155 247.553 529.614)" stroke="white" stroke-width="2"/>
<rect opacity="0.473684" x="251.327" y="529.55" width="259" height="259" transform="rotate(-145 251.327 529.55)" stroke="white" stroke-width="2"/>
<rect opacity="0.526316" x="255.108" y="529.529" width="254" height="254" transform="rotate(-135 255.108 529.529)" stroke="white" stroke-width="2"/>
<rect opacity="0.578947" x="258.889" y="529.551" width="249" height="249" transform="rotate(-125 258.889 529.551)" stroke="white" stroke-width="2"/>
<rect opacity="0.631579" x="262.662" y="529.614" width="244" height="244" transform="rotate(-115 262.662 529.614)" stroke="white" stroke-width="2"/>
<rect opacity="0.684211" x="266.421" y="529.718" width="239" height="239" transform="rotate(-105 266.421 529.718)" stroke="white" stroke-width="2"/>
<rect opacity="0.736842" x="270.159" y="529.859" width="234" height="234" transform="rotate(-95 270.159 529.859)" stroke="white" stroke-width="2"/>
<rect opacity="0.789474" x="273.869" y="530.034" width="229" height="229" transform="rotate(-85 273.869 530.034)" stroke="white" stroke-width="2"/>
<rect opacity="0.842105" x="277.546" y="530.236" width="224" height="224" transform="rotate(-75 277.546 530.236)" stroke="white" stroke-width="2"/>
<rect opacity="0.894737" x="281.186" y="530.459" width="219" height="219" transform="rotate(-65 281.186 530.459)" stroke="white" stroke-width="2"/>
<rect opacity="0.947368" x="284.785" y="530.697" width="214" height="214" transform="rotate(-55 284.785 530.697)" stroke="white" stroke-width="2"/>
<rect x="288.342" y="530.943" width="209" height="209" transform="rotate(-45 288.342 530.943)" stroke="white" stroke-width="2"/>
</svg>
