<svg width="90" height="90" viewBox="0 0 90 90" fill="none" xmlns="http://www.w3.org/2000/svg">
<circle cx="45" cy="45" r="44" fill="#FF35C7" stroke="#C4C4C4" stroke-width="2"/>
<path d="M50.1 39.8999L43.825 46.1749" stroke="white" stroke-width="3" stroke-linecap="round" stroke-linejoin="round"/>
<path fill-rule="evenodd" clip-rule="evenodd" d="M50 29.9924V39.9999H60.0075L70.01 29.9949L63.34 26.6624L60.0075 19.9924L50 29.9949V29.9924Z" stroke="white" stroke-width="3" stroke-linecap="round" stroke-linejoin="round"/>
<path d="M42.4999 24.9299C38.4038 25.1812 34.4674 26.6098 31.1636 29.0442C27.8598 31.4785 25.3292 34.8151 23.8758 38.6529C22.4224 42.4907 22.1081 46.6665 22.9706 50.6787C23.8331 54.6908 25.8357 58.3686 28.7379 61.2701C31.64 64.1716 35.3182 66.1734 39.3305 67.035C43.3429 67.8966 47.5186 67.5813 51.3561 66.1271C55.1936 64.6729 58.5296 62.1415 60.9632 58.8372C63.3968 55.5328 64.8246 51.5961 65.0749 47.4999" stroke="white" stroke-width="3" stroke-linecap="round" stroke-linejoin="round"/>
<path d="M55.5299 47.5C55.2882 49.7148 54.4253 51.8161 53.0407 53.5617C51.6561 55.3072 49.8064 56.6257 47.7047 57.3652C45.603 58.1047 43.3351 58.2351 41.1626 57.7412C38.9901 57.2473 37.0014 56.1493 35.426 54.5739C33.8506 52.9985 32.7526 51.0099 32.2587 48.8373C31.7649 46.6648 31.8952 44.3969 32.6347 42.2952C33.3742 40.1936 34.6928 38.3438 36.4383 36.9592C38.1838 35.5746 40.2851 34.7117 42.4999 34.47" stroke="white" stroke-width="3" stroke-linecap="round" stroke-linejoin="round"/>
</svg>
