<svg width="90" height="90" viewBox="0 0 90 90" fill="none" xmlns="http://www.w3.org/2000/svg">
<circle cx="45" cy="45" r="44" fill="#FF35C7" stroke="#C4C4C4" stroke-width="2"/>
<path d="M37.4975 41.25C37.4975 44.0125 33.58 46.25 28.7475 46.25C23.915 46.25 20 44.01 20 41.25" stroke="white" stroke-width="3" stroke-linecap="round" stroke-linejoin="round"/>
<path d="M37.4975 48.75C37.4975 51.5125 33.58 53.75 28.7475 53.75C23.915 53.75 20 51.51 20 48.75" stroke="white" stroke-width="3" stroke-linecap="round" stroke-linejoin="round"/>
<path d="M37.4975 48.75C37.4975 51.5125 33.58 53.75 28.7475 53.75C23.915 53.75 20 51.51 20 48.75" stroke="white" stroke-width="3" stroke-linecap="round" stroke-linejoin="round"/>
<path fill-rule="evenodd" clip-rule="evenodd" d="M62.5 67.5H52.5C51.1739 67.5 49.9021 66.9732 48.9645 66.0355C48.0268 65.0979 47.5 63.8261 47.5 62.5V27.5C47.5 26.1739 48.0268 24.9021 48.9645 23.9645C49.9021 23.0268 51.1739 22.5 52.5 22.5H62.5C63.8261 22.5 65.0979 23.0268 66.0355 23.9645C66.9732 24.9021 67.5 26.1739 67.5 27.5V62.5C67.5 63.8261 66.9732 65.0979 66.0355 66.0355C65.0979 66.9732 63.8261 67.5 62.5 67.5Z" stroke="white" stroke-width="3" stroke-linecap="round" stroke-linejoin="round"/>
<path d="M37.5 45H47.5" stroke="white" stroke-width="3" stroke-linecap="round" stroke-linejoin="round"/>
<path d="M55 30H60" stroke="white" stroke-width="3" stroke-linecap="round" stroke-linejoin="round"/>
<path d="M55 40H60" stroke="white" stroke-width="3" stroke-linecap="round" stroke-linejoin="round"/>
<path d="M55 50H60" stroke="white" stroke-width="3" stroke-linecap="round" stroke-linejoin="round"/>
<path d="M55 60H60" stroke="white" stroke-width="3" stroke-linecap="round" stroke-linejoin="round"/>
<path d="M20 33.75C20 36.5125 23.9175 38.75 28.75 38.75C33.5825 38.75 37.5 36.5125 37.5 33.75" stroke="white" stroke-width="3" stroke-linecap="round" stroke-linejoin="round"/>
<path fill-rule="evenodd" clip-rule="evenodd" d="M20 33.75C20.0025 30.99 23.92 28.75 28.75 28.75C33.58 28.75 37.5 30.9875 37.4975 33.75V56.25C37.4975 59.0125 33.58 61.25 28.7475 61.25C23.915 61.25 20 59.01 20 56.25V33.75Z" stroke="white" stroke-width="3" stroke-linecap="round" stroke-linejoin="round"/>
</svg>
