<svg width="90" height="90" viewBox="0 0 90 90" fill="none" xmlns="http://www.w3.org/2000/svg">
<circle cx="45" cy="45" r="44" fill="#FF35C7" stroke="#C4C4C4" stroke-width="2"/>
<path fill-rule="evenodd" clip-rule="evenodd" d="M62.5 57.5H60C59.337 57.5 58.7011 57.2366 58.2322 56.7678C57.7634 56.2989 57.5 55.663 57.5 55V42.5C57.5 41.837 57.7634 41.2011 58.2322 40.7322C58.7011 40.2634 59.337 40 60 40H62.5C63.8261 40 65.0979 40.5268 66.0355 41.4645C66.9732 42.4021 67.5 43.6739 67.5 45V52.5C67.5 53.8261 66.9732 55.0979 66.0355 56.0355C65.0979 56.9732 63.8261 57.5 62.5 57.5Z" stroke="white" stroke-width="3" stroke-linecap="round" stroke-linejoin="round"/>
<path fill-rule="evenodd" clip-rule="evenodd" d="M30 57.5H27.5C26.1739 57.5 24.9021 56.9732 23.9645 56.0355C23.0268 55.0979 22.5 53.8261 22.5 52.5V45C22.5 43.6739 23.0268 42.4021 23.9645 41.4645C24.9021 40.5268 26.1739 40 27.5 40H30C30.663 40 31.2989 40.2634 31.7678 40.7322C32.2366 41.2011 32.5 41.837 32.5 42.5V55C32.5 55.663 32.2366 56.2989 31.7678 56.7678C31.2989 57.2366 30.663 57.5 30 57.5Z" stroke="white" stroke-width="3" stroke-linecap="round" stroke-linejoin="round"/>
<path d="M61.25 40V38.75C61.25 34.4402 59.5379 30.307 56.4905 27.2595C53.443 24.212 49.3098 22.5 45 22.5C40.6902 22.5 36.557 24.212 33.5095 27.2595C30.462 30.307 28.75 34.4402 28.75 38.75V40" stroke="white" stroke-width="3" stroke-linecap="round" stroke-linejoin="round"/>
<path fill-rule="evenodd" clip-rule="evenodd" d="M46.5625 68.125H43.4375C42.6087 68.125 41.8138 67.7958 41.2278 67.2097C40.6417 66.6237 40.3125 65.8288 40.3125 65C40.3125 64.1712 40.6417 63.3763 41.2278 62.7903C41.8138 62.2042 42.6087 61.875 43.4375 61.875H46.5625C47.3913 61.875 48.1862 62.2042 48.7722 62.7903C49.3583 63.3763 49.6875 64.1712 49.6875 65C49.6875 65.8288 49.3583 66.6237 48.7722 67.2097C48.1862 67.7958 47.3913 68.125 46.5625 68.125V68.125Z" stroke="white" stroke-width="3" stroke-linecap="round" stroke-linejoin="round"/>
<path d="M49.6875 65H55C56.3261 65 57.5979 64.4732 58.5355 63.5355C59.4732 62.5979 60 61.3261 60 60V57.5" stroke="white" stroke-width="3" stroke-linecap="round" stroke-linejoin="round"/>
</svg>
