<svg width="90" height="90" viewBox="0 0 90 90" fill="none" xmlns="http://www.w3.org/2000/svg">
<circle cx="45" cy="45" r="44" fill="#FF35C7" stroke="white" stroke-width="2"/>
<path d="M40 35H32.5" stroke="white" stroke-width="3" stroke-linecap="round" stroke-linejoin="round"/>
<path d="M22.5 61.25V28.75C22.5 27.0924 23.1585 25.5027 24.3306 24.3306C25.5027 23.1585 27.0924 22.5 28.75 22.5H30C30.663 22.5 31.2989 22.7634 31.7678 23.2322C32.2366 23.7011 32.5 24.337 32.5 25V52.5C32.5 53.163 32.2366 53.7989 31.7678 54.2678C31.2989 54.7366 30.663 55 30 55H28.75C27.0924 55 25.5027 55.6585 24.3306 56.8306C23.1585 58.0027 22.5 59.5924 22.5 61.25C22.5 62.9076 23.1585 64.4973 24.3306 65.6694C25.5027 66.8415 27.0924 67.5 28.75 67.5H62.5C63.8261 67.5 65.0979 66.9732 66.0355 66.0355C66.9732 65.0979 67.5 63.8261 67.5 62.5V42.5" stroke="white" stroke-width="3" stroke-linecap="round" stroke-linejoin="round"/>
<path fill-rule="evenodd" clip-rule="evenodd" d="M51.875 46.71L46.425 47.485C46.2341 47.5132 46.0392 47.4966 45.8558 47.4364C45.6724 47.3762 45.5056 47.2742 45.3685 47.1383C45.2314 47.0025 45.1279 46.8365 45.0661 46.6537C45.0043 46.4709 44.9859 46.2761 45.0125 46.085L45.7925 40.625C45.9452 39.5545 46.4408 38.5624 47.205 37.7975L60.95 24.05C61.9439 23.0561 63.2919 22.4978 64.6975 22.4978C66.103 22.4978 67.451 23.0561 68.445 24.05C68.9378 24.5422 69.3288 25.1268 69.5956 25.7702C69.8623 26.4137 69.9996 27.1034 69.9996 27.8C69.9996 28.4965 69.8623 29.1863 69.5956 29.8297C69.3288 30.4732 68.9378 31.0577 68.445 31.55L54.7025 45.2925C53.9372 46.058 52.9441 46.5546 51.8725 46.7075L51.875 46.71Z" stroke="white" stroke-width="3" stroke-linecap="round" stroke-linejoin="round"/>
</svg>
