<svg width="525" height="493" viewBox="0 0 525 493" fill="none" xmlns="http://www.w3.org/2000/svg">
<circle opacity="0.01" cx="187.97" cy="459.012" r="113.369" transform="rotate(115 187.97 459.012)" stroke="white" stroke-width="2"/>
<circle opacity="0.0204082" cx="180.186" cy="442.014" r="113.369" transform="rotate(120 180.186 442.014)" stroke="white" stroke-width="2"/>
<circle opacity="0.0408163" cx="173.591" cy="424.697" r="113.369" transform="rotate(125 173.591 424.697)" stroke="white" stroke-width="2"/>
<circle opacity="0.0612245" cx="168.209" cy="407.167" r="113.369" transform="rotate(130 168.209 407.167)" stroke="white" stroke-width="2"/>
<circle opacity="0.0816327" cx="164.052" cy="389.529" r="113.369" transform="rotate(135 164.052 389.529)" stroke="white" stroke-width="2"/>
<circle opacity="0.102041" cx="161.127" cy="371.892" r="113.369" transform="rotate(140 161.127 371.892)" stroke="white" stroke-width="2"/>
<circle opacity="0.122449" cx="159.428" cy="354.362" r="113.369" transform="rotate(145 159.428 354.362)" stroke="white" stroke-width="2"/>
<circle opacity="0.142857" cx="158.941" cy="337.045" r="113.369" transform="rotate(150 158.941 337.045)" stroke="white" stroke-width="2"/>
<circle opacity="0.163265" cx="159.643" cy="320.047" r="113.369" transform="rotate(155 159.643 320.047)" stroke="white" stroke-width="2"/>
<circle opacity="0.183673" cx="161.502" cy="303.47" r="113.369" transform="rotate(160 161.502 303.47)" stroke="white" stroke-width="2"/>
<circle opacity="0.204082" cx="164.476" cy="287.413" r="113.369" transform="rotate(165 164.476 287.413)" stroke="white" stroke-width="2"/>
<circle opacity="0.22449" cx="168.517" cy="271.972" r="113.369" transform="rotate(170 168.517 271.972)" stroke="white" stroke-width="2"/>
<circle opacity="0.244898" cx="173.566" cy="257.237" r="113.369" transform="rotate(175 173.566 257.237)" stroke="white" stroke-width="2"/>
<circle opacity="0.265306" cx="179.558" cy="243.293" r="113.369" transform="rotate(-180 179.558 243.293)" stroke="white" stroke-width="2"/>
<circle opacity="0.285714" cx="186.42" cy="230.219" r="113.369" transform="rotate(-175 186.42 230.219)" stroke="white" stroke-width="2"/>
<circle opacity="0.306122" cx="194.074" cy="218.089" r="113.369" transform="rotate(-170 194.074 218.089)" stroke="white" stroke-width="2"/>
<circle opacity="0.326531" cx="202.433" cy="206.966" r="113.369" transform="rotate(-165 202.433 206.966)" stroke="white" stroke-width="2"/>
<circle opacity="0.346939" cx="211.409" cy="196.91" r="113.369" transform="rotate(-160 211.409 196.91)" stroke="white" stroke-width="2"/>
<circle opacity="0.367347" cx="220.903" cy="187.97" r="113.369" transform="rotate(-155 220.903 187.97)" stroke="white" stroke-width="2"/>
<circle opacity="0.387755" cx="230.82" cy="180.186" r="113.369" transform="rotate(-150 230.82 180.186)" stroke="white" stroke-width="2"/>
<circle opacity="0.408163" cx="241.055" cy="173.591" r="113.369" transform="rotate(-145 241.055 173.591)" stroke="white" stroke-width="2"/>
<circle opacity="0.428571" cx="251.503" cy="168.209" r="113.369" transform="rotate(-140 251.503 168.209)" stroke="white" stroke-width="2"/>
<circle opacity="0.44898" cx="262.059" cy="164.052" r="113.369" transform="rotate(-135 262.059 164.052)" stroke="white" stroke-width="2"/>
<circle opacity="0.469388" cx="272.615" cy="161.127" r="113.369" transform="rotate(-130 272.615 161.127)" stroke="white" stroke-width="2"/>
<circle opacity="0.489796" cx="283.064" cy="159.428" r="113.369" transform="rotate(-125 283.064 159.428)" stroke="white" stroke-width="2"/>
<circle opacity="0.510204" cx="293.299" cy="158.941" r="113.369" transform="rotate(-120 293.299 158.941)" stroke="white" stroke-width="2"/>
<circle opacity="0.530612" cx="303.215" cy="159.643" r="113.369" transform="rotate(-115 303.215 159.643)" stroke="white" stroke-width="2"/>
<circle opacity="0.55102" cx="312.71" cy="161.502" r="113.369" transform="rotate(-110 312.71 161.502)" stroke="white" stroke-width="2"/>
<circle opacity="0.571429" cx="321.685" cy="164.476" r="113.369" transform="rotate(-105 321.685 164.476)" stroke="white" stroke-width="2"/>
<circle opacity="0.591837" cx="330.045" cy="168.517" r="113.369" transform="rotate(-100 330.045 168.517)" stroke="white" stroke-width="2"/>
<circle opacity="0.612245" cx="337.698" cy="173.566" r="113.369" transform="rotate(-95 337.698 173.566)" stroke="white" stroke-width="2"/>
<circle opacity="0.632653" cx="344.561" cy="179.558" r="113.369" transform="rotate(-90 344.561 179.558)" stroke="white" stroke-width="2"/>
<circle opacity="0.653061" cx="350.553" cy="186.42" r="113.369" transform="rotate(-85 350.553 186.42)" stroke="white" stroke-width="2"/>
<circle opacity="0.673469" cx="355.602" cy="194.073" r="113.369" transform="rotate(-80 355.602 194.073)" stroke="white" stroke-width="2"/>
<circle opacity="0.693878" cx="359.642" cy="202.433" r="113.369" transform="rotate(-75 359.642 202.433)" stroke="white" stroke-width="2"/>
<circle opacity="0.714286" cx="362.617" cy="211.408" r="113.369" transform="rotate(-70 362.617 211.408)" stroke="white" stroke-width="2"/>
<circle opacity="0.734694" cx="364.476" cy="220.903" r="113.369" transform="rotate(-65 364.476 220.903)" stroke="white" stroke-width="2"/>
<circle opacity="0.755102" cx="365.178" cy="230.82" r="113.369" transform="rotate(-60 365.178 230.82)" stroke="white" stroke-width="2"/>
<circle opacity="0.77551" cx="364.691" cy="241.055" r="113.369" transform="rotate(-55 364.691 241.055)" stroke="white" stroke-width="2"/>
<circle opacity="0.795918" cx="362.992" cy="251.503" r="113.369" transform="rotate(-50 362.992 251.503)" stroke="white" stroke-width="2"/>
<circle opacity="0.816327" cx="360.066" cy="262.06" r="113.369" transform="rotate(-45 360.066 262.06)" stroke="white" stroke-width="2"/>
<circle opacity="0.836735" cx="355.91" cy="272.615" r="113.369" transform="rotate(-40 355.91 272.615)" stroke="white" stroke-width="2"/>
<circle opacity="0.857143" cx="350.528" cy="283.064" r="113.369" transform="rotate(-35 350.528 283.064)" stroke="white" stroke-width="2"/>
<circle opacity="0.877551" cx="343.933" cy="293.299" r="113.369" transform="rotate(-30 343.933 293.299)" stroke="white" stroke-width="2"/>
<circle opacity="0.897959" cx="336.149" cy="303.215" r="113.369" transform="rotate(-25 336.149 303.215)" stroke="white" stroke-width="2"/>
<circle opacity="0.918367" cx="327.208" cy="312.71" r="113.369" transform="rotate(-20 327.208 312.71)" stroke="white" stroke-width="2"/>
<circle opacity="0.938776" cx="317.152" cy="321.686" r="113.369" transform="rotate(-15 317.152 321.686)" stroke="white" stroke-width="2"/>
<circle opacity="0.959184" cx="306.03" cy="330.045" r="113.369" transform="rotate(-10 306.03 330.045)" stroke="white" stroke-width="2"/>
<circle opacity="0.979592" cx="293.899" cy="337.699" r="113.369" transform="rotate(-5 293.899 337.699)" stroke="white" stroke-width="2"/>
<circle cx="280.826" cy="344.561" r="113.369" stroke="white" stroke-width="2"/>
</svg>
