<svg width="570" height="406" viewBox="0 0 570 406" fill="none" xmlns="http://www.w3.org/2000/svg">
<path opacity="0.0526316" d="M309.612 365.157L400.952 312.422L492.291 365.157V470.627L400.952 523.362L309.612 470.627L309.612 365.157Z" stroke="white" stroke-width="2"/>
<path opacity="0.105263" d="M289.274 366.15L393.142 347.836L460.937 428.63L424.864 527.74L320.996 546.054L253.201 465.26L289.274 366.15Z" stroke="white" stroke-width="2"/>
<path opacity="0.157895" d="M269.427 360.405L373.294 378.719L409.367 477.829L341.572 558.623L237.705 540.309L201.632 441.199L269.427 360.405Z" stroke="white" stroke-width="2"/>
<path opacity="0.210526" d="M252.345 348.495L343.684 401.23L343.684 506.7L252.345 559.435L161.005 506.7L161.005 401.23L252.345 348.495Z" stroke="white" stroke-width="2"/>
<path opacity="0.263158" d="M239.97 331.738L307.765 412.532L271.692 511.642L167.825 529.956L100.03 449.162L136.103 350.052L239.97 331.738Z" stroke="white" stroke-width="2"/>
<path opacity="0.315789" d="M233.677 312.037L269.75 411.147L201.955 491.941L98.0874 473.627L62.0146 374.517L129.809 293.723L233.677 312.037Z" stroke="white" stroke-width="2"/>
<path opacity="0.368421" d="M234.105 291.65L234.105 397.12L142.765 449.855L51.4257 397.12L51.4257 291.65L142.765 238.915L234.105 291.65Z" stroke="white" stroke-width="2"/>
<path opacity="0.421053" d="M241.084 272.916L205.011 372.025L101.143 390.34L33.3486 309.545L69.4215 210.436L173.289 192.121L241.084 272.916Z" stroke="white" stroke-width="2"/>
<path opacity="0.473684" d="M253.653 257.976L185.858 338.77L81.9903 320.456L45.9174 221.346L113.712 140.552L217.58 158.866L253.653 257.976Z" stroke="white" stroke-width="2"/>
<path opacity="0.526316" d="M270.178 248.513L178.838 301.248L87.4983 248.513L87.4983 143.043L178.838 90.3082L270.178 143.043V248.513Z" stroke="white" stroke-width="2"/>
<path opacity="0.578947" d="M288.546 245.55L184.678 263.865L116.883 183.07L152.956 83.9606L256.824 65.6459L324.619 146.441L288.546 245.55Z" stroke="white" stroke-width="2"/>
<path opacity="0.631579" d="M306.423 249.326L202.555 231.011L166.482 131.902L234.277 51.107L338.145 69.4217L374.218 168.531L306.423 249.326Z" stroke="white" stroke-width="2"/>
<path opacity="0.684211" d="M321.535 259.266L230.195 206.531L230.195 101.061L321.535 48.3258L412.874 101.061L412.874 206.531L321.535 259.266Z" stroke="white" stroke-width="2"/>
<path opacity="0.736842" d="M331.939 274.052L264.144 193.258L300.217 94.1482L404.085 75.8336L471.88 156.628L435.807 255.738L331.939 274.052Z" stroke="white" stroke-width="2"/>
<path opacity="0.789474" d="M336.263 291.783L300.19 192.674L367.984 111.879L471.852 130.194L507.925 229.303L440.13 310.098L336.263 291.783Z" stroke="white" stroke-width="2"/>
<path opacity="0.842105" d="M333.865 310.201L333.865 204.731L425.204 151.996L516.544 204.731L516.544 310.201L425.204 362.936L333.865 310.201Z" stroke="white" stroke-width="2"/>
<path opacity="0.894737" d="M324.916 326.965L360.989 227.856L464.856 209.541L532.651 290.336L496.578 389.445L392.711 407.76L324.916 326.965Z" stroke="white" stroke-width="2"/>
<path opacity="0.947368" d="M310.377 339.934L378.172 259.14L482.039 277.454L518.112 376.564L450.317 457.358L346.45 439.044L310.377 339.934Z" stroke="white" stroke-width="2"/>
<path d="M291.883 347.427L383.222 294.692L474.562 347.427V452.897L383.222 505.632L291.883 452.897V347.427Z" stroke="white" stroke-width="2"/>
</svg>
