<svg width="24" height="24" viewBox="0 0 24 24" fill="none" xmlns="http://www.w3.org/2000/svg">
<path d="M6.20051 22.4953H1.8468V8.47813H6.20051V22.4953ZM4.02131 6.56606C2.62944 6.56606 1.5 5.41319 1.5 4.02131C1.5 2.62944 2.62944 1.5 4.02131 1.5C5.41319 1.5 6.54262 2.62944 6.54262 4.02131C6.54262 5.41319 5.41319 6.56606 4.02131 6.56606ZM22.4953 22.4953H18.151V15.6718C18.151 14.0456 18.1182 11.9602 15.8874 11.9602C13.6239 11.9602 13.2771 13.727 13.2771 15.5547V22.4953H8.92803V8.47813H13.1037V10.3902H13.1646C13.7457 9.28889 15.1657 8.12665 17.284 8.12665C21.6892 8.12665 22.5 11.0276 22.5 14.7955V22.4953H22.4953Z" fill="white"/>
</svg>
