<svg width="24" height="24" viewBox="0 0 24 24" fill="none" xmlns="http://www.w3.org/2000/svg">
<path fill-rule="evenodd" clip-rule="evenodd" d="M19 18.981H5C4.46957 18.981 3.96086 18.7703 3.58579 18.3953C3.21071 18.0202 3 17.5115 3 16.981V7.01904C3 6.48861 3.21071 5.9799 3.58579 5.60483C3.96086 5.22976 4.46957 5.01904 5 5.01904H19C19.5304 5.01904 20.0391 5.22976 20.4142 5.60483C20.7893 5.9799 21 6.48861 21 7.01904V16.982C20.9997 17.5123 20.7889 18.0208 20.4139 18.3956C20.0388 18.7705 19.5303 18.981 19 18.981V18.981Z" stroke="white" stroke-width="1.5" stroke-linecap="round" stroke-linejoin="round"/>
<path d="M17 9L12 12L7 9" stroke="white" stroke-width="1.5" stroke-linecap="round" stroke-linejoin="round"/>
</svg>
