<svg width="24" height="24" viewBox="0 0 24 24" fill="none" xmlns="http://www.w3.org/2000/svg">
<path fill-rule="evenodd" clip-rule="evenodd" d="M12 13C11.2044 13 10.4413 12.6839 9.87868 12.1213C9.31607 11.5587 9 10.7956 9 10C9 9.20435 9.31607 8.44129 9.87868 7.87868C10.4413 7.31607 11.2044 7 12 7C12.7956 7 13.5587 7.31607 14.1213 7.87868C14.6839 8.44129 15 9.20435 15 10C15 10.7956 14.6839 11.5587 14.1213 12.1213C13.5587 12.6839 12.7956 13 12 13Z" stroke="white" stroke-width="1.5" stroke-linecap="round" stroke-linejoin="round"/>
<path fill-rule="evenodd" clip-rule="evenodd" d="M12 21C12 21 5 15.25 5 10C5 9.08075 5.18106 8.1705 5.53284 7.32122C5.88463 6.47194 6.40024 5.70026 7.05025 5.05025C7.70026 4.40024 8.47194 3.88463 9.32122 3.53284C10.1705 3.18106 11.0807 3 12 3C12.9193 3 13.8295 3.18106 14.6788 3.53284C15.5281 3.88463 16.2997 4.40024 16.9497 5.05025C17.5998 5.70026 18.1154 6.47194 18.4672 7.32122C18.8189 8.1705 19 9.08075 19 10C19 15.25 12 21 12 21Z" stroke="white" stroke-width="1.5" stroke-linecap="round" stroke-linejoin="round"/>
</svg>
