<svg width="13" height="13" viewBox="0 0 13 13" fill="none" xmlns="http://www.w3.org/2000/svg">
<path d="M9.625 2.125H3.375" stroke="white" stroke-linecap="round" stroke-linejoin="round"/>
<path fill-rule="evenodd" clip-rule="evenodd" d="M3.375 2.125C3.375 2.45652 3.2433 2.77446 3.00888 3.00888C2.77446 3.2433 2.45652 3.375 2.125 3.375C1.79348 3.375 1.47554 3.2433 1.24112 3.00888C1.0067 2.77446 0.875 2.45652 0.875 2.125C0.875 1.79348 1.0067 1.47554 1.24112 1.24112C1.47554 1.0067 1.79348 0.875 2.125 0.875C2.45652 0.875 2.77446 1.0067 3.00888 1.24112C3.2433 1.47554 3.375 1.79348 3.375 2.125V2.125Z" stroke="white" stroke-linecap="round" stroke-linejoin="round"/>
<path fill-rule="evenodd" clip-rule="evenodd" d="M11.6848 9.11438L10.1466 9.76062C9.97348 9.83348 9.83573 9.97123 9.76288 10.1444L9.11476 11.685C9.05734 11.8219 8.95894 11.9377 8.83307 12.0164C8.7072 12.0951 8.56004 12.1329 8.41181 12.1247C8.26358 12.1164 8.12155 12.0624 8.00524 11.9701C7.88894 11.8778 7.80405 11.7518 7.76226 11.6094L6.52976 7.4225C6.49327 7.2986 6.49085 7.16716 6.52275 7.042C6.55464 6.91683 6.61967 6.80258 6.71101 6.71125C6.80234 6.61992 6.91659 6.55489 7.04175 6.52299C7.16691 6.4911 7.29835 6.49352 7.42226 6.53L11.6091 7.76188C11.7516 7.80375 11.8775 7.88869 11.9697 8.00504C12.0619 8.12138 12.1158 8.26343 12.1241 8.41165C12.1323 8.55988 12.0944 8.70701 12.0156 8.83284C11.9369 8.95867 11.8211 9.05702 11.6841 9.11438H11.6848Z" stroke="white" stroke-linecap="round" stroke-linejoin="round"/>
<path d="M2.125 3.375V9.625" stroke="white" stroke-linecap="round" stroke-linejoin="round"/>
<path d="M10.875 5.25V3.375" stroke="white" stroke-linecap="round" stroke-linejoin="round"/>
<path fill-rule="evenodd" clip-rule="evenodd" d="M9.625 2.125C9.625 1.79348 9.7567 1.47554 9.99112 1.24112C10.2255 1.0067 10.5435 0.875 10.875 0.875C11.2065 0.875 11.5245 1.0067 11.7589 1.24112C11.9933 1.47554 12.125 1.79348 12.125 2.125C12.125 2.45652 11.9933 2.77446 11.7589 3.00888C11.5245 3.2433 11.2065 3.375 10.875 3.375C10.5435 3.375 10.2255 3.2433 9.99112 3.00888C9.7567 2.77446 9.625 2.45652 9.625 2.125Z" stroke="white" stroke-linecap="round" stroke-linejoin="round"/>
<path d="M5.25 10.875H3.375" stroke="white" stroke-linecap="round" stroke-linejoin="round"/>
<path fill-rule="evenodd" clip-rule="evenodd" d="M2.125 12.125C1.79348 12.125 1.47554 11.9933 1.24112 11.7589C1.0067 11.5245 0.875 11.2065 0.875 10.875C0.875 10.5435 1.0067 10.2255 1.24112 9.99112C1.47554 9.7567 1.79348 9.625 2.125 9.625C2.45652 9.625 2.77446 9.7567 3.00888 9.99112C3.2433 10.2255 3.375 10.5435 3.375 10.875C3.375 11.2065 3.2433 11.5245 3.00888 11.7589C2.77446 11.9933 2.45652 12.125 2.125 12.125Z" stroke="white" stroke-linecap="round" stroke-linejoin="round"/>
</svg>
