<svg width="21" height="18" viewBox="0 0 21 18" fill="none" xmlns="http://www.w3.org/2000/svg">
<path d="M13 16.5V16C13 15.0717 12.6313 14.1815 11.9749 13.5251C11.3185 12.8687 10.4283 12.5 9.5 12.5H4.5C3.57174 12.5 2.6815 12.8687 2.02513 13.5251C1.36875 14.1815 1 15.0717 1 16V16.5" stroke="white" stroke-width="1.5" stroke-linecap="round" stroke-linejoin="round"/>
<path d="M7 8.5C8.933 8.5 10.5 6.933 10.5 5C10.5 3.067 8.933 1.5 7 1.5C5.067 1.5 3.5 3.067 3.5 5C3.5 6.933 5.067 8.5 7 8.5Z" stroke="white" stroke-width="1.5" stroke-linecap="round" stroke-linejoin="round"/>
<path d="M20 16.5V16C20 15.0717 19.6313 14.1815 18.9749 13.5251C18.3185 12.8687 17.4283 12.5 16.5 12.5H16" stroke="white" stroke-width="1.5" stroke-linecap="round" stroke-linejoin="round"/>
<path d="M14 1.5C14.9283 1.5 15.8185 1.86875 16.4749 2.52513C17.1313 3.1815 17.5 4.07174 17.5 5C17.5 5.92826 17.1313 6.8185 16.4749 7.47487C15.8185 8.13125 14.9283 8.5 14 8.5" stroke="white" stroke-width="1.5" stroke-linecap="round" stroke-linejoin="round"/>
</svg>
