<svg width="570" height="543" viewBox="0 0 570 543" fill="none" xmlns="http://www.w3.org/2000/svg">
<path d="M373.274 407.584L372.99 407.436L285 361.091L196.726 407.584L213.586 309.112L142.15 239.367L142.465 239.32L240.863 225.008L285 135.419L285.142 135.703L329.137 225.008L427.85 239.367L427.62 239.591L356.426 309.112L373.274 407.584ZM285 360.737L285.076 360.775L372.867 407.006L356.086 309.001L356.146 308.945L427.185 239.598L328.948 225.299L328.91 225.223L285 136.133L241.068 225.299H240.986L142.815 239.598L213.914 309.001V309.083L197.145 407.006L285 360.737Z" fill="url(#paint0_linear_295_1524)"/>
<path d="M373.274 407.584L372.99 407.436L285 361.091L196.726 407.584L213.586 309.112L142.15 239.367L142.465 239.32L240.863 225.008L285 135.419L285.142 135.703L329.137 225.008L427.85 239.367L427.62 239.591L356.426 309.112L373.274 407.584ZM285 360.737L285.076 360.775L372.867 407.006L356.086 309.001L356.146 308.945L427.185 239.598L328.948 225.299L328.91 225.223L285 136.133L241.068 225.299H240.986L142.815 239.598L213.914 309.001V309.083L197.145 407.006L285 360.737Z" fill="url(#paint1_linear_295_1524)"/>
<path d="M373.274 407.584L372.99 407.436L285 361.091L196.726 407.584L213.586 309.112L142.15 239.367L142.465 239.32L240.863 225.008L285 135.419L285.142 135.703L329.137 225.008L427.85 239.367L427.62 239.591L356.426 309.112L373.274 407.584ZM285 360.737L285.076 360.775L372.867 407.006L356.086 309.001L356.146 308.945L427.185 239.598L328.948 225.299L328.91 225.223L285 136.133L241.068 225.299H240.986L142.815 239.598L213.914 309.001V309.083L197.145 407.006L285 360.737Z" fill="url(#paint2_linear_295_1524)"/>
<path d="M374.39 409.286L374.107 409.138L285 362.208L195.613 409.286L212.684 309.582L140.366 238.975L240.305 224.427L285 133.717L285.142 134.004L329.695 224.427L429.634 238.975L429.404 239.197L357.319 309.582L374.39 409.286ZM285 361.855L285.076 361.893L373.981 408.708L356.981 309.472L357.038 309.415L428.96 239.193L329.487 224.718L329.449 224.642L285 134.431L240.516 224.718H240.434L141.044 239.193L213.022 309.472V309.554L196.042 408.711L285 361.855Z" fill="url(#paint3_linear_295_1524)"/>
<path d="M374.39 409.286L374.107 409.138L285 362.208L195.613 409.286L212.684 309.582L140.366 238.975L240.305 224.427L285 133.717L285.142 134.004L329.695 224.427L429.634 238.975L429.404 239.197L357.319 309.582L374.39 409.286ZM285 361.855L285.076 361.893L373.981 408.708L356.981 309.472L357.038 309.415L428.96 239.193L329.487 224.718L329.449 224.642L285 134.431L240.516 224.718H240.434L141.044 239.193L213.022 309.472V309.554L196.042 408.711L285 361.855Z" fill="url(#paint4_linear_295_1524)"/>
<path d="M376.509 412.551L376.225 412.403L285 364.362L193.494 412.551L210.969 310.486L136.938 238.202L239.245 223.312L285 130.452L285.142 130.736L330.754 223.312L433.064 238.202L432.834 238.426L359.034 310.486L376.509 412.551ZM285 364.005L285.075 364.043L376.089 411.973L358.693 310.375L358.753 310.318L432.386 238.42L330.556 223.597L330.518 223.524L285 131.166L239.457 223.6H239.375L137.613 238.42L211.306 310.375V310.457L193.923 411.973L285 364.005Z" fill="url(#paint5_linear_295_1524)"/>
<path d="M376.509 412.551L376.225 412.403L285 364.362L193.494 412.551L210.969 310.486L136.938 238.202L239.245 223.312L285 130.452L285.142 130.736L330.754 223.312L433.064 238.202L432.834 238.426L359.034 310.486L376.509 412.551ZM285 364.005L285.075 364.043L376.089 411.973L358.693 310.375L358.753 310.318L432.386 238.42L330.556 223.597L330.518 223.524L285 131.166L239.457 223.6H239.375L137.613 238.42L211.306 310.375V310.457L193.923 411.973L285 364.005Z" fill="url(#paint6_linear_295_1524)"/>
<path d="M377.568 414.184L377.284 414.035L285 365.439L192.432 414.184L210.112 310.937L135.224 237.817L135.539 237.772L238.716 222.753L285 128.819L285.142 129.103L331.284 222.753L434.779 237.817L434.549 238.041L359.888 310.937L377.568 414.184ZM285 365.082L285.076 365.12L377.133 413.606L359.535 310.827L359.595 310.77L434.086 238.038L331.06 223.044L331.022 222.968L285 129.533L238.927 223.044H238.845L135.901 238.038L210.452 310.827V310.909L192.867 413.606L285 365.082Z" fill="url(#paint7_linear_295_1524)"/>
<path d="M378.634 415.816L378.35 415.668L285 366.513L191.366 415.816L191.423 415.501L209.248 311.389L133.509 237.431L133.824 237.387L238.177 222.198L285 127.183L285.142 127.471L331.801 222.207L436.469 237.441L436.242 237.665L360.746 311.389L378.634 415.816ZM134.187 237.652L209.595 311.278L209.579 311.36L191.792 415.254L285 366.156L285.076 366.194L378.208 415.239L360.408 311.278L360.468 311.221L435.817 237.643L331.606 222.485L331.568 222.409L285 127.894L238.398 222.485H238.316L134.187 237.652Z" fill="url(#paint8_linear_295_1524)"/>
<path d="M379.687 417.449L379.406 417.301L285 367.577L190.313 417.44L208.39 311.84L131.781 237.046L132.096 237.002L237.641 221.639L285 125.551L285.142 125.838L332.343 221.639L438.219 237.046L437.992 237.27L361.609 311.84L379.687 417.449ZM132.471 237.267L208.737 311.73L208.721 311.812L190.735 416.871L285 367.229L285.075 367.271L379.264 416.871L361.263 311.73L361.322 311.673L437.525 237.267L332.132 221.926L332.094 221.853L285 126.265L237.868 221.926H237.786L132.471 237.267Z" fill="url(#paint9_linear_295_1524)"/>
<path d="M380.242 418.305L379.961 418.157L285 368.152L189.759 418.305L207.949 312.077L130.898 236.841L131.214 236.797L237.395 221.345L285 124.714L285.142 124.998L332.621 221.361L439.105 236.841L438.875 237.065L362.054 312.077L380.242 418.305ZM131.576 237.065L208.287 311.967V312.049L190.19 417.727L285 367.795L285.076 367.833L379.823 417.727L361.714 311.967L361.774 311.907L438.427 237.065L332.413 221.636L332.375 221.56L285 125.412L237.591 221.636H237.509L131.576 237.065Z" fill="url(#paint10_linear_295_1524)"/>
<path d="M383.42 423.203L383.136 423.054L285 371.366L186.584 423.203L205.38 313.429L125.756 235.688L126.072 235.644L235.784 219.675L285 119.8L285.142 120.085L334.21 219.675L444.238 235.688L444.007 235.912L364.624 313.429L383.42 423.203ZM126.422 235.909L205.717 313.318V313.4L187.012 422.625L285 371.019L285.076 371.057L383 422.625L364.286 313.318L364.343 313.261L443.569 235.893L334.002 219.946L333.964 219.87L285 120.514L236.002 219.962H235.92L126.422 235.909Z" fill="url(#paint11_linear_295_1524)"/>
<path d="M383.42 423.203L383.136 423.054L285 371.366L186.584 423.203L205.38 313.429L125.756 235.688L126.072 235.644L235.784 219.675L285 119.8L285.142 120.085L334.21 219.675L444.238 235.688L444.007 235.912L364.624 313.429L383.42 423.203ZM126.422 235.909L205.717 313.318V313.4L187.012 422.625L285 371.019L285.076 371.057L383 422.625L364.286 313.318L364.343 313.261L443.569 235.893L334.002 219.946L333.964 219.87L285 120.514L236.002 219.962H235.92L126.422 235.909Z" fill="url(#paint12_linear_295_1524)"/>
<path d="M383.924 423.983L383.644 423.831L285 371.887L186.076 423.992L204.97 313.656L124.94 235.505L125.255 235.458L235.538 219.406L285 119.02L285.142 119.308L334.462 219.412L445.064 235.518L444.834 235.742L365.034 313.647L383.924 423.983ZM285 371.53L285.076 371.568L383.508 423.405L364.693 313.536L364.753 313.476L444.386 235.726L334.254 219.697L334.216 219.621L285 119.734L235.749 219.697H235.668L125.615 235.726L205.307 313.536V313.618L186.508 423.405L285 371.53Z" fill="url(#paint13_linear_295_1524)"/>
<path d="M384.479 424.835L384.195 424.687L285 372.449L185.524 424.835L204.522 313.893L124.041 235.303L124.356 235.259L235.257 219.116L285 118.168L285.142 118.452L334.739 219.116L445.959 235.303L445.732 235.527L365.481 313.893L384.479 424.835ZM124.719 235.524L204.859 313.77V313.852L185.943 424.258L285 372.093L285.075 372.131L384.069 424.258L365.153 313.77L365.213 313.713L445.29 235.524L334.541 219.403L334.503 219.33L285 118.878L235.472 219.403H235.39L124.719 235.524Z" fill="url(#paint14_linear_295_1524)"/>
<path d="M384.983 425.615L384.703 425.467L285 372.964L185.017 425.615L204.112 314.098L123.225 235.12L123.54 235.072L235.008 218.841L285 117.388L285.142 117.675L334.992 218.841L446.778 235.11L446.548 235.334L365.891 314.098L384.983 425.615ZM123.899 235.341L204.446 313.972V314.054L185.436 425.05L285 372.629L285.076 372.667L384.567 425.05L365.55 313.988L365.61 313.928L446.101 235.341L334.784 219.138L334.746 219.062L285 118.105L235.22 219.157H235.138L123.899 235.341Z" fill="url(#paint15_linear_295_1524)"/>
<path d="M386.597 428.101L386.314 427.952L285 374.6L183.406 428.101L183.459 427.785L202.807 314.783L120.614 234.532L120.93 234.485L234.201 218.001L285 114.899L285.142 115.187L335.799 218.001L449.389 234.532L449.159 234.757L367.19 314.783L386.597 428.101ZM121.292 234.753L203.148 314.673V314.755L183.838 427.523L285 374.243L285.076 374.281L386.178 427.523L366.856 314.673L366.915 314.616L448.711 234.753L335.591 218.288L335.553 218.216L285 115.613L234.412 218.288H234.331L121.292 234.753Z" fill="url(#paint16_linear_295_1524)"/>
<path d="M387.71 429.819L387.43 429.67L285 375.73L182.29 429.819L201.906 315.26L118.811 234.128L119.126 234.081L233.646 217.413L285 113.185L285.142 113.472L336.357 217.413L451.189 234.128L450.962 234.349L368.095 315.26L387.71 429.819ZM285 375.374L285.076 375.411L387.294 429.241L367.757 315.156L367.817 315.096L450.514 234.346L336.146 217.701L336.111 217.628L285 113.898L233.855 217.701H233.773L119.486 234.346L202.246 315.156V315.238L182.725 429.237L285 375.374Z" fill="url(#paint17_linear_295_1524)"/>
<path d="M388.77 431.451L388.489 431.3L285 376.804L181.23 431.435L201.051 315.693L117.099 233.743L117.414 233.695L233.117 216.855L285 111.552L285.142 111.839L336.886 216.855L452.904 233.743L452.674 233.964L368.952 315.709L388.77 431.451ZM117.777 233.964L201.388 315.598V315.68L181.662 430.873L285 376.447L285.076 376.485L388.35 430.873L368.615 315.611L368.672 315.554L452.217 233.977L336.666 217.158L336.631 217.082L285 112.266L233.325 217.145H233.243L117.777 233.964Z" fill="url(#paint18_linear_295_1524)"/>
<path d="M389.271 432.222L388.987 432.073L285 377.313L180.729 432.222L200.645 315.923L116.289 233.56L116.604 233.512L232.865 216.592L285 110.778L285.142 111.066L337.136 216.592L453.715 233.56L453.484 233.784L369.359 315.923L389.271 432.222ZM285 376.956L285.076 376.997L388.852 431.644L369.018 315.813L369.078 315.756L453.037 233.781L336.928 216.88L336.89 216.807L285 111.492L233.076 216.88H232.994L116.964 233.781L200.982 315.813V315.895L181.161 431.644L285 376.956Z" fill="url(#paint19_linear_295_1524)"/>
<path d="M393.136 438.177L392.856 438.026L285 381.231L176.864 438.177L197.517 317.569L110.028 232.154L110.343 232.107L230.923 214.559L285 104.841L285.142 105.129L339.052 214.575L459.973 232.154L459.746 232.379L372.493 317.569L393.136 438.177ZM285 380.878L285.076 380.916L392.717 437.6L372.143 317.458L372.203 317.401L459.285 232.375L338.854 214.846L338.819 214.77L285 105.539L231.143 214.846H231.061L110.715 232.375L197.858 317.458V317.54L177.299 437.6L285 380.878Z" fill="url(#paint20_linear_295_1524)"/>
<path d="M394.224 439.854L393.94 439.706L285 382.337L175.779 439.854L175.833 439.538L196.64 318.033L108.278 231.757L108.593 231.712L230.39 213.984L285 103.149L285.142 103.433L339.61 213.984L461.725 231.757L461.495 231.981L373.363 318.033L394.224 439.854ZM108.952 231.978L196.978 317.922V318.004L176.214 439.267L285 381.98L285.076 382.021L393.804 439.276L373.025 317.922L373.085 317.866L461.044 231.971L339.399 214.268L339.361 214.192L285 103.863L230.601 214.275H230.519L108.952 231.978Z" fill="url(#paint21_linear_295_1524)"/>
<path d="M394.769 440.697L394.488 440.549L285 382.893L175.231 440.682L196.196 318.251L107.389 231.558L107.704 231.513L230.112 213.697L285 102.315L285.142 102.603L339.884 213.709L462.611 231.57L462.384 231.794L373.794 318.279L394.769 440.697ZM285 382.539L285.075 382.577L394.353 440.123L373.466 318.156L373.526 318.096L461.933 231.788L339.676 213.993L339.638 213.921L285 103.016L230.326 213.984H230.244L108.066 231.788L196.533 318.156V318.238L175.663 440.132L285 382.539Z" fill="url(#paint22_linear_295_1524)"/>
<path d="M395.321 441.547L395.037 441.398L285.009 383.451L174.692 441.556L195.761 318.51L106.509 231.352L106.825 231.305L229.829 213.406L285 101.453L285.142 101.74L340.171 213.406L463.513 231.359L463.283 231.583L374.252 318.5L395.321 441.547ZM107.19 231.58L196.095 318.39V318.472L175.098 440.969L285 383.095L285.076 383.136L394.902 440.969L373.905 318.39L373.962 318.333L462.816 231.58L339.951 213.693L339.916 213.621L285 102.167L230.049 213.693H229.967L107.19 231.58Z" fill="url(#paint23_linear_295_1524)"/>
<path d="M396.427 443.255L396.147 443.104L285 384.576L173.573 443.255L194.853 318.971L104.706 230.954L105.021 230.91L229.283 212.822L285 99.7478L285.142 100.035L340.714 212.822L465.294 230.954L465.067 231.179L375.147 318.968L396.427 443.255ZM285 384.219L285.076 384.257L396.011 442.677L374.81 318.863L374.87 318.803L464.616 231.175L340.506 213.112L340.468 213.037L285 100.462L229.513 213.112H229.431L105.384 231.175L195.194 318.863V318.946L174.008 442.677L285 384.219Z" fill="url(#paint24_linear_295_1524)"/>
<path d="M396.985 444.114L396.702 443.966L285 385.141L173.014 444.114L173.071 443.798L194.402 319.211L103.804 230.752L104.119 230.705L229.009 212.525L285 98.8889L285.142 99.1763L340.994 212.544L466.196 230.768L465.969 230.992L375.598 319.227L396.985 444.114ZM285 384.784L285.076 384.825L396.566 443.536L375.26 319.116L375.32 319.056L465.518 230.989L340.783 212.835L340.748 212.759L285 99.6026L229.217 212.819H229.135L104.482 230.973L194.743 319.1L194.727 319.182L173.434 443.536L285 384.784Z" fill="url(#paint25_linear_295_1524)"/>
<path d="M396.985 444.114L396.702 443.966L285 385.141L173.014 444.114L173.071 443.798L194.402 319.211L103.804 230.752L104.119 230.705L229.009 212.525L285 98.8889L285.142 99.1763L340.994 212.544L466.196 230.768L465.969 230.992L375.598 319.227L396.985 444.114ZM285 384.784L285.076 384.825L396.566 443.536L375.26 319.116L375.32 319.056L465.518 230.989L340.783 212.835L340.748 212.759L285 99.6026L229.217 212.819H229.135L104.482 230.973L194.743 319.1L194.727 319.182L173.434 443.536L285 384.784Z" fill="url(#paint26_linear_295_1524)"/>
<path d="M397.55 444.976L397.266 444.828L285 385.709L172.45 444.976L193.945 319.448L102.899 230.55L103.215 230.503L228.728 212.235L285 98.0268L285.142 98.3142L341.259 212.235L467.088 230.55L466.861 230.771L376.039 319.448L397.55 444.976ZM285 385.352L285.076 385.39L397.127 444.398L375.711 319.347L375.771 319.29L466.423 230.778L341.064 212.525L341.026 212.452L285 98.7405L228.939 212.525H228.857L103.577 230.768L194.289 319.337V319.419L172.888 444.398L285 385.352Z" fill="url(#paint27_linear_295_1524)"/>
<path d="M398.672 446.71L398.388 446.562L285 386.84L171.331 446.71L193.04 319.928L101.077 230.14L101.392 230.092L228.167 211.641L285 96.29L285.142 96.5773L341.836 211.641L468.923 230.14L468.696 230.364L376.953 319.928L398.672 446.71ZM101.755 230.361L193.377 319.817V319.899L171.763 446.132L285 386.496L285.076 386.534L398.256 446.132L376.626 319.817L376.685 319.76L468.248 230.361L341.631 211.931L341.593 211.856L285 97.0036L228.375 211.931H228.293L101.755 230.361Z" fill="url(#paint28_linear_295_1524)"/>
<path d="M400.387 449.337L400.107 449.189L285 388.58L169.613 449.337L169.666 449.022L191.65 320.654L98.3218 229.518L98.637 229.473L227.306 210.744L285 93.6626L285.142 93.95L342.694 210.744L471.688 229.518L471.457 229.742L378.347 320.654L400.387 449.337ZM285 388.223L285.076 388.264L399.955 448.759L378.003 320.55L378.06 320.493L471.007 229.739L342.482 211.031L342.444 210.959L285 94.3763L227.524 211.031H227.442L98.9933 229.739L191.997 320.543V320.625L170.054 448.759L285 388.223Z" fill="url(#paint29_linear_295_1524)"/>
<path d="M400.387 449.337L400.107 449.189L285 388.58L169.613 449.337L169.666 449.022L191.65 320.654L98.3218 229.518L98.637 229.473L227.306 210.744L285 93.6626L285.142 93.95L342.694 210.744L471.688 229.518L471.457 229.742L378.347 320.654L400.387 449.337ZM285 388.223L285.076 388.264L399.955 448.759L378.003 320.55L378.06 320.493L471.007 229.739L342.482 211.031L342.444 210.959L285 94.3763L227.524 211.031H227.442L98.9933 229.739L191.997 320.543V320.625L170.054 448.759L285 388.223Z" fill="url(#paint30_linear_295_1524)"/>
<path d="M400.948 450.218L400.665 450.07L285 389.161L169.055 450.218L191.199 320.897L97.395 229.319L97.7103 229.271L227.029 210.45L285 92.7816L285.142 93.0689L342.974 210.444L472.608 229.312L472.378 229.533L378.804 320.897L400.948 450.218ZM285 388.804L285.076 388.845L400.529 449.644L378.461 320.787L378.52 320.73L471.927 229.53L342.763 210.731L342.725 210.656L285 93.4952L227.237 210.731H227.155L98.0728 229.53L191.536 320.793V320.875L169.487 449.65L285 388.804Z" fill="url(#paint31_linear_295_1524)"/>
<path d="M401.522 451.106L401.238 450.957L285 389.745L168.481 451.106L190.736 321.156L96.4712 229.101L96.7865 229.057L226.742 210.141L285 91.8942L285.142 92.1784L343.261 210.141L473.535 229.088L473.308 229.312L379.264 321.156L401.522 451.106ZM285 389.388L285.076 389.426L401.093 450.528L378.921 321.033L378.981 320.973L472.848 229.322L343.043 210.428L343.006 210.356L285 92.611L226.95 210.428H226.868L97.1427 229.322L191.073 321.033L191.057 321.115L168.897 450.528L285 389.388Z" fill="url(#paint32_linear_295_1524)"/>
<path d="M401.522 451.106L401.238 450.957L285 389.745L168.481 451.106L190.736 321.156L96.4712 229.101L96.7865 229.057L226.742 210.141L285 91.8942L285.142 92.1784L343.261 210.141L473.535 229.088L473.308 229.312L379.264 321.156L401.522 451.106ZM285 389.388L285.076 389.426L401.093 450.528L378.921 321.033L378.981 320.973L472.848 229.322L343.043 210.428L343.006 210.356L285 92.611L226.95 210.428H226.868L97.1427 229.322L191.073 321.033L191.057 321.115L168.897 450.528L285 389.388Z" fill="url(#paint33_linear_295_1524)"/>
<path d="M402.099 451.993L401.815 451.845L285 390.329L167.904 451.993L167.958 451.677L190.266 321.387L95.5254 228.892L95.8407 228.845L226.443 209.838L285 91.0068L285.142 91.2942L343.548 209.838L474.475 228.892L474.244 229.117L379.74 321.387L402.099 451.993ZM285 389.972L285.076 390.01L401.68 451.415L379.397 321.276L379.457 321.219L473.79 229.113L343.34 210.125L343.302 210.052L285 91.7205L226.676 210.141H226.594L96.2095 229.113L190.606 321.276L190.591 321.358L168.323 451.415L285 389.972Z" fill="url(#paint34_linear_295_1524)"/>
<path d="M402.676 452.884L402.395 452.735L285 390.917L167.324 452.884L189.79 321.633L94.5796 228.681L94.8949 228.637L226.143 209.531L285 90.1163L285.142 90.4037L343.838 209.531L475.42 228.681L475.19 228.905L380.21 321.633L402.676 452.884ZM285 390.56L285.076 390.598L402.257 452.309L379.873 321.522L379.933 321.466L474.727 228.902L343.639 209.822L343.601 209.746L285 90.83L226.361 209.822H226.279L95.2763 228.902L190.137 321.522V321.604L167.753 452.309L285 390.56Z" fill="url(#paint35_linear_295_1524)"/>
<path d="M403.256 453.787L402.976 453.635L285 391.504L166.744 453.787L189.33 321.889L93.6592 228.469L93.9744 228.425L225.872 209.228L285 89.2226L285.142 89.51L344.128 209.228L476.344 228.469L476.114 228.693L380.671 321.882L403.256 453.787ZM94.337 228.69L189.67 321.788V321.87L167.179 453.218L285 391.147L285.076 391.188L402.837 453.203L380.333 321.788L380.393 321.728L475.666 228.706L343.92 209.531L343.882 209.456L285 89.9363L226.083 209.516H226.001L94.337 228.69Z" fill="url(#paint36_linear_295_1524)"/>
<path d="M403.256 453.787L402.976 453.635L285 391.504L166.744 453.787L189.33 321.889L93.6592 228.469L93.9744 228.425L225.872 209.228L285 89.2226L285.142 89.51L344.128 209.228L476.344 228.469L476.114 228.693L380.671 321.882L403.256 453.787ZM94.337 228.69L189.67 321.788V321.87L167.179 453.218L285 391.147L285.076 391.188L402.837 453.203L380.333 321.788L380.393 321.728L475.666 228.706L343.92 209.531L343.882 209.456L285 89.9363L226.083 209.516H226.001L94.337 228.69Z" fill="url(#paint37_linear_295_1524)"/>
<path d="M403.855 454.677L403.571 454.526L285.032 392.095L166.164 454.677L188.863 322.129L92.707 228.258L93.0223 228.213L225.569 208.922L285 88.3258L285.142 88.6132L344.412 208.928L477.274 228.264L477.047 228.488L381.156 322.129L403.855 454.677ZM285 391.741L285.076 391.779L403.42 454.103L380.803 322.021L380.863 321.964L476.606 228.491L344.21 209.228L344.175 209.152L285 89.0521L225.79 209.209H225.708L93.3943 228.472L189.197 322.012V322.094L166.596 454.093L285 391.741Z" fill="url(#paint38_linear_295_1524)"/>
<path d="M407.538 460.377L407.254 460.229L285 395.849L162.466 460.377L185.868 323.704L86.7329 226.912L87.0482 226.868L223.735 206.974L285 82.6258L285.142 82.91L346.269 206.974L483.268 226.912L483.041 227.137L384.135 323.704L407.538 460.377ZM87.4107 227.133L186.205 323.594V323.676L162.882 459.787L285 395.492L285.076 395.53L407.118 459.787L383.789 323.581L383.849 323.524L482.587 227.121L346.055 207.248L346.017 207.176L285 83.3395L223.943 207.261H223.861L87.4107 227.133Z" fill="url(#paint39_linear_295_1524)"/>
<path d="M409.164 462.885L408.883 462.736L285 397.501L160.836 462.869L184.55 324.383L84.1001 226.322L84.4154 226.274L222.918 206.115L285 80.1153L285.142 80.4027L347.082 206.115L485.903 226.325L485.673 226.546L385.453 324.402L409.164 462.885ZM285 397.144L285.076 397.182L408.745 462.313L385.1 324.292L385.16 324.232L485.225 226.54L346.874 206.405L346.836 206.329L285 80.8416L223.129 206.405H223.047L84.7779 226.54L184.887 324.289V324.371L161.255 462.313L285 397.144Z" fill="url(#paint40_linear_295_1524)"/>
<path d="M409.164 462.885L408.883 462.736L285 397.501L160.836 462.869L184.55 324.383L84.1001 226.322L84.4154 226.274L222.918 206.115L285 80.1153L285.142 80.4027L347.082 206.115L485.903 226.325L485.673 226.546L385.453 324.402L409.164 462.885ZM285 397.144L285.076 397.182L408.745 462.313L385.1 324.292L385.16 324.232L485.225 226.54L346.874 206.405L346.836 206.329L285 80.8416L223.129 206.405H223.047L84.7779 226.54L184.887 324.289V324.371L161.255 462.313L285 397.144Z" fill="url(#paint41_linear_295_1524)"/>
<path d="M410.223 464.524L409.94 464.375L285 398.575L159.78 464.524L183.696 324.857L82.3882 225.937L82.7034 225.889L222.391 205.559L285 78.4859L285.142 78.7732L347.612 205.559L487.612 225.937L487.385 226.161L386.307 324.848L410.223 464.524ZM83.066 226.158L184.033 324.737V324.819L160.211 463.939L285 398.208L285.076 398.246L409.804 463.93L385.967 324.728L386.027 324.671L486.937 226.145L347.404 205.834L347.366 205.761L285 79.1995L222.599 205.846H222.517L83.066 226.158Z" fill="url(#paint42_linear_295_1524)"/>
<path d="M411.28 466.144L410.996 465.995L285 399.645L158.724 466.144L182.841 325.302L80.6797 225.551L80.995 225.507L221.862 205.003L285 76.8564L285.142 77.1438L348.141 205.003L489.324 225.551L489.093 225.776L387.162 325.299L411.28 466.144ZM81.3575 225.788L183.188 325.204V325.287L159.143 465.566L285 399.288L285.076 399.329L410.867 465.566L386.831 325.189L386.891 325.132L488.662 225.788L347.946 205.306L347.911 205.234L285 77.5701L222.07 205.29H221.988L81.3575 225.788Z" fill="url(#paint43_linear_295_1524)"/>
<path d="M411.28 466.144L410.996 465.995L285 399.645L158.724 466.144L182.841 325.302L80.6797 225.551L80.995 225.507L221.862 205.003L285 76.8564L285.142 77.1438L348.141 205.003L489.324 225.551L489.093 225.776L387.162 325.299L411.28 466.144ZM81.3575 225.788L183.188 325.204V325.287L159.143 465.566L285 399.288L285.076 399.329L410.867 465.566L386.831 325.189L386.891 325.132L488.662 225.788L347.946 205.306L347.911 205.234L285 77.5701L222.07 205.29H221.988L81.3575 225.788Z" fill="url(#paint44_linear_295_1524)"/>
<path d="M412.825 468.525L412.541 468.376L285 401.215L157.179 468.525L181.593 325.956L78.186 224.989L78.5013 224.945L221.096 204.188L285 74.4753L285.142 74.7627L348.914 204.188L491.814 224.989L491.584 225.213L388.407 325.956L412.825 468.525ZM78.8576 225.21L181.927 325.845V325.928L157.611 467.95L285 400.858L285.076 400.896L412.405 467.95L388.073 325.845L388.133 325.789L491.146 225.21L348.703 204.479L348.668 204.403L285 75.189L221.298 204.479H221.216L78.8576 225.21Z" fill="url(#paint45_linear_295_1524)"/>
<path d="M412.825 468.525L412.541 468.376L285 401.215L157.179 468.525L181.593 325.956L78.186 224.989L78.5013 224.945L221.096 204.188L285 74.4753L285.142 74.7627L348.914 204.188L491.814 224.989L491.584 225.213L388.407 325.956L412.825 468.525ZM78.8576 225.21L181.927 325.845V325.928L157.611 467.95L285 400.858L285.076 400.896L412.405 467.95L388.073 325.845L388.133 325.789L491.146 225.21L348.703 204.479L348.668 204.403L285 75.189L221.298 204.479H221.216L78.8576 225.21Z" fill="url(#paint46_linear_295_1524)"/>
<path d="M413.392 469.403L413.111 469.254L285 401.792L156.608 469.403L181.129 326.209L77.2588 224.781L77.5741 224.737L220.805 203.895L285 73.5975L285.142 73.8848L349.197 203.888L492.76 224.781L492.53 225.005L388.874 326.209L413.392 469.403ZM285 401.436L285.076 401.473L412.976 468.825L388.533 326.089L388.593 326.032L492.066 225.002L348.999 204.179L348.964 204.103L285 74.3111L221.001 204.179H220.919L77.9335 225.002L181.467 326.089V326.171L157.04 468.825L285 401.436Z" fill="url(#paint47_linear_295_1524)"/>
<path d="M414.451 471.032L414.167 470.884L285 402.866L155.552 471.032L180.275 326.651L75.5469 224.399L75.8621 224.351L220.276 203.333L285 71.968L285.142 72.2554L349.727 203.333L494.456 224.399L494.226 224.62L389.728 326.651L414.451 471.032ZM285 402.509L285.075 402.547L414.019 470.441L389.378 326.524L389.435 326.468L493.765 224.601L349.516 203.62L349.481 203.547L285 72.6817L220.484 203.62H220.402L76.2247 224.617L180.612 326.54V326.622L155.984 470.457L285 402.509Z" fill="url(#paint48_linear_295_1524)"/>
<path d="M414.451 471.032L414.167 470.884L285 402.866L155.552 471.032L180.275 326.651L75.5469 224.399L75.8621 224.351L220.276 203.333L285 71.968L285.142 72.2554L349.727 203.333L494.456 224.399L494.226 224.62L389.728 326.651L414.451 471.032ZM285 402.509L285.075 402.547L414.019 470.441L389.378 326.524L389.435 326.468L493.765 224.601L349.516 203.62L349.481 203.547L285 72.6817L220.484 203.62H220.402L76.2247 224.617L180.612 326.54V326.622L155.984 470.457L285 402.509Z" fill="url(#paint49_linear_295_1524)"/>
<path d="M414.94 471.787L414.656 471.638L285 403.362L155.063 471.787L179.878 326.859L74.7559 224.209L75.0711 224.165L220.03 203.064L285 71.2164L285.142 71.5038L349.97 203.074L495.244 224.231L495.017 224.456L390.122 326.872L414.94 471.787ZM285 403.005L285.076 403.043L414.521 471.209L389.785 326.749L389.845 326.689L494.567 224.44L349.762 203.367L349.724 203.291L285 71.9301L220.241 203.367H220.159L75.4337 224.43L180.218 326.745V326.828L155.499 471.206L285 403.005Z" fill="url(#paint50_linear_295_1524)"/>
<path d="M415.52 472.661L415.239 472.513L285 403.937L154.48 472.661L154.537 472.346L179.405 327.099L73.835 224.013L74.1502 223.966L219.74 202.777L285 70.3385L285.142 70.6259L350.26 202.777L496.171 224.013L495.944 224.235L390.582 327.102L415.52 472.661ZM74.5128 224.235L179.758 326.992V327.074L154.912 472.103L285 403.577L285.075 403.618L415.088 472.103L390.245 327.008L390.305 326.948L495.487 224.25L350.045 203.093L350.008 203.017L285 71.0522L219.957 203.051H219.875L74.5128 224.235Z" fill="url(#paint51_linear_295_1524)"/>
<path d="M417.623 475.923L417.339 475.772L285 406.084L152.38 475.923L177.709 328.002L70.4146 223.243L70.7298 223.199L218.69 201.662L285 67.0796L285.142 67.367L351.313 201.662L499.589 223.243L499.358 223.467L392.294 327.993L417.623 475.923ZM71.0924 223.464L178.046 327.892V327.974L152.809 475.346L285 405.727L285.076 405.765L417.203 475.346L391.954 327.892L392.014 327.832L498.911 223.464L351.102 201.949L351.067 201.877L285 67.7933L218.898 201.949H218.816L71.0924 223.464Z" fill="url(#paint52_linear_295_1524)"/>
<path d="M418.194 476.801L417.91 476.653L285 406.662L151.81 476.801L151.864 476.486L177.246 328.245L69.4941 223.035L69.8094 222.99L218.407 201.362L285 66.2017L285.142 66.4891L351.597 201.362L500.509 223.035L500.279 223.259L392.755 328.245L418.194 476.801ZM70.1688 223.262L177.586 328.135V328.217L152.245 476.224L285 406.305L285.076 406.343L417.774 476.224L392.417 328.135L392.477 328.075L499.832 223.262L351.389 201.656L351.351 201.583L285 66.9154L218.615 201.649H218.533L70.1688 223.262Z" fill="url(#paint53_linear_295_1524)"/>
<path d="M418.194 476.801L417.91 476.653L285 406.662L151.81 476.801L151.864 476.486L177.246 328.245L69.4941 223.035L69.8094 222.99L218.407 201.362L285 66.2017L285.142 66.4891L351.597 201.362L500.509 223.035L500.279 223.259L392.755 328.245L418.194 476.801ZM70.1688 223.262L177.586 328.135V328.217L152.245 476.224L285 406.305L285.076 406.343L417.774 476.224L392.417 328.135L392.477 328.075L499.832 223.262L351.389 201.656L351.351 201.583L285 66.9154L218.615 201.649H218.533L70.1688 223.262Z" fill="url(#paint54_linear_295_1524)"/>
<path d="M418.673 477.553L418.392 477.405L285 407.158L151.328 477.553L176.864 328.451L68.728 222.858L69.0433 222.813L218.164 201.106L285 65.4501L285.142 65.7375L351.836 201.106L501.294 222.858L501.067 223.082L393.136 328.451L418.673 477.553ZM69.3806 223.079L177.201 328.34V328.422L151.766 476.975L285 406.801L285.076 406.839L418.263 476.975L392.821 328.34L392.881 328.283L500.629 223.079L351.641 201.394L351.603 201.318L285 66.1638L218.372 201.394H218.29L69.3806 223.079Z" fill="url(#paint55_linear_295_1524)"/>
<path d="M423.364 484.772L423.08 484.624L285 411.91L146.64 484.772L146.693 484.456L173.081 330.447L61.127 221.156L61.4422 221.108L215.821 198.63L285 58.2312L285.142 58.5186L354.185 198.64L508.88 221.156L508.649 221.377L396.941 330.447L423.364 484.772ZM285 411.553L285.076 411.591L422.945 484.194L396.604 330.336L396.661 330.279L508.208 221.367L353.983 198.921L353.945 198.845L285 58.9449L216.029 198.927H215.948L61.7922 221.367L173.396 330.314V330.396L147.065 484.185L285 411.553Z" fill="url(#paint56_linear_295_1524)"/>
<path d="M423.364 484.772L423.08 484.624L285 411.91L146.64 484.772L146.693 484.456L173.081 330.447L61.127 221.156L61.4422 221.108L215.821 198.63L285 58.2312L285.142 58.5186L354.185 198.64L508.88 221.156L508.649 221.377L396.941 330.447L423.364 484.772ZM285 411.553L285.076 411.591L422.945 484.194L396.604 330.336L396.661 330.279L508.208 221.367L353.983 198.921L353.945 198.845L285 58.9449L216.029 198.927H215.948L61.7922 221.367L173.396 330.314V330.396L147.065 484.185L285 411.553Z" fill="url(#paint57_linear_295_1524)"/>
<path d="M423.846 485.514L423.562 485.366L285 412.397L146.157 485.514L172.674 330.652L60.3481 220.979L60.6634 220.934L215.579 198.384L285 57.4891L285.142 57.7765L354.421 198.384L509.655 220.979L509.425 221.203L397.329 330.652L423.846 485.514ZM285 412.04L285.076 412.081L423.427 484.936L396.989 330.541L397.049 330.484L508.968 221.2L354.204 198.675L354.166 198.599L285 58.2028L215.79 198.675H215.708L61.026 221.2L173.011 330.541V330.623L146.589 484.936L285 412.04Z" fill="url(#paint58_linear_295_1524)"/>
<path d="M423.846 485.514L423.562 485.366L285 412.397L146.157 485.514L172.674 330.652L60.3481 220.979L60.6634 220.934L215.579 198.384L285 57.4891L285.142 57.7765L354.421 198.384L509.655 220.979L509.425 221.203L397.329 330.652L423.846 485.514ZM285 412.04L285.076 412.081L423.427 484.936L396.989 330.541L397.049 330.484L508.968 221.2L354.204 198.675L354.166 198.599L285 58.2028L215.79 198.675H215.708L61.026 221.2L173.011 330.541V330.623L146.589 484.936L285 412.04Z" fill="url(#paint59_linear_295_1524)"/>
<path d="M423.846 485.514L423.562 485.366L285 412.397L146.157 485.514L172.674 330.652L60.3481 220.979L60.6634 220.934L215.579 198.384L285 57.4891L285.142 57.7765L354.421 198.384L509.655 220.979L509.425 221.203L397.329 330.652L423.846 485.514ZM285 412.04L285.076 412.081L423.427 484.936L396.989 330.541L397.049 330.484L508.968 221.2L354.204 198.675L354.166 198.599L285 58.2028L215.79 198.675H215.708L61.026 221.2L173.011 330.541V330.623L146.589 484.936L285 412.04Z" fill="url(#paint60_linear_295_1524)"/>
<path d="M424.328 486.259L424.045 486.111L285 412.889L145.675 486.259L172.283 330.857L59.563 220.802L59.8783 220.758L215.326 198.131L285 56.7439L285.142 57.0281L354.674 198.131L510.446 220.802L510.219 221.026L397.729 330.857L424.328 486.259ZM60.2408 221.023L172.62 330.75V330.829L146.091 485.681L285 412.532L285.076 412.57L423.909 485.681L397.379 330.75L397.439 330.69L509.759 221.023L354.456 198.419L354.418 198.346L285 57.4733L215.547 198.419H215.465L60.2408 221.023Z" fill="url(#paint61_linear_295_1524)"/>
<path d="M424.814 487.008L424.534 486.859L285 413.382L145.186 487.008L171.889 331.065L58.7783 220.625L59.0936 220.581L215.093 197.876L285 55.9923L285.142 56.2797L354.907 197.876L511.225 220.612L510.995 220.837L398.13 331.046L424.814 487.008ZM285 413.025L285.076 413.063L424.395 486.43L397.774 330.945L397.834 330.889L510.547 220.837L354.699 198.154L354.661 198.078L285 56.706L215.304 198.179H215.223L59.4561 220.846L172.227 330.945V331.028L145.618 486.42L285 413.025Z" fill="url(#paint62_linear_295_1524)"/>
<path d="M425.293 487.762L425.012 487.614L285 413.878L144.707 487.772L171.504 331.261L58.0088 220.436L58.3241 220.391L214.872 197.604L285 55.2407L285.142 55.5281L355.153 197.617L512.016 220.448L511.786 220.672L398.496 331.261L425.293 487.762ZM58.6645 220.669L171.845 331.163V331.245L145.142 487.185L285 413.521L285.076 413.559L424.883 487.185L398.18 331.163L398.24 331.107L511.351 220.669L354.954 197.907L354.92 197.831L285 55.9544L215.058 197.907H214.976L58.6645 220.669Z" fill="url(#paint63_linear_295_1524)"/>
<path d="M425.293 487.762L425.012 487.614L285 413.878L144.707 487.772L171.504 331.261L58.0088 220.436L58.3241 220.391L214.872 197.604L285 55.2407L285.142 55.5281L355.153 197.617L512.016 220.448L511.786 220.672L398.496 331.261L425.293 487.762ZM58.6645 220.669L171.845 331.163V331.245L145.142 487.185L285 413.521L285.076 413.559L424.883 487.185L398.18 331.163L398.24 331.107L511.351 220.669L354.954 197.907L354.92 197.831L285 55.9544L215.058 197.907H214.976L58.6645 220.669Z" fill="url(#paint64_linear_295_1524)"/>
<path d="M426.286 489.278L426.005 489.13L285 414.875L143.714 489.278L170.697 331.7L56.3945 220.104L56.7098 220.057L214.358 197.111L285 53.7249L285.142 54.0092L355.645 197.099L513.608 220.104L513.378 220.325L399.302 331.707L426.286 489.278ZM57.0629 220.312L171.038 331.577V331.659L144.149 488.694L285 414.519L285.075 414.56L425.87 488.7L398.965 331.577L399.025 331.517L512.937 220.312L355.44 197.386L355.405 197.314L285 54.4386L214.566 197.386H214.484L57.0629 220.312Z" fill="url(#paint65_linear_295_1524)"/>
<path d="M430.476 495.736L430.196 495.588L285 419.129L139.524 495.736L139.578 495.42L167.321 333.478L49.6167 218.566L49.932 218.519L212.262 194.891L285 47.2639L285.142 47.5513L357.738 194.891L520.387 218.576L520.157 218.8L402.695 333.472L430.476 495.736ZM50.2945 218.79L167.646 333.371V333.453L139.943 495.155L285 418.772L285.076 418.81L430.06 495.155L402.355 333.364L402.415 333.308L519.693 218.784L357.514 195.179L357.477 195.103L285 47.9776L212.489 195.182H212.407L50.2945 218.79Z" fill="url(#paint66_linear_295_1524)"/>
<path d="M431.532 497.365L431.252 497.217L285 420.2L138.468 497.365L166.46 333.93L47.9204 218.181L48.2357 218.137L211.736 194.336L285 45.6376L285.142 45.9218L358.284 194.342L522.111 218.187L521.884 218.411L403.54 333.93L431.532 497.365ZM48.5825 218.402L166.791 333.819V333.901L138.9 496.788L285 419.843L285.076 419.884L431.116 496.788L403.225 333.819L403.284 333.759L521.433 218.402L358.075 194.626L358.038 194.55L285 46.3513L211.944 194.626H211.862L48.5825 218.402Z" fill="url(#paint67_linear_295_1524)"/>
<path d="M431.532 497.365L431.252 497.217L285 420.2L138.468 497.365L166.46 333.93L47.9204 218.181L48.2357 218.137L211.736 194.336L285 45.6376L285.142 45.9218L358.284 194.342L522.111 218.187L521.884 218.411L403.54 333.93L431.532 497.365ZM48.5825 218.402L166.791 333.819V333.901L138.9 496.788L285 419.843L285.076 419.884L431.116 496.788L403.225 333.819L403.284 333.759L521.433 218.402L358.075 194.626L358.038 194.55L285 46.3513L211.944 194.626H211.862L48.5825 218.402Z" fill="url(#paint68_linear_295_1524)"/>
<path d="M433.077 499.743L432.794 499.595L285 421.766L136.926 499.743L136.98 499.428L165.206 334.586L45.3984 217.619L45.7137 217.575L210.951 193.524L285 43.2629L285.142 43.5503L359.04 193.527L524.602 217.619L524.372 217.843L404.801 334.586L433.077 499.743ZM46.0889 217.84L165.543 334.476V334.558L137.358 499.165L285 421.409L285.076 421.447L432.658 499.165L404.457 334.476L404.517 334.416L523.915 217.84L358.829 193.811L358.794 193.739L285 43.9734L211.171 193.811H211.089L46.0889 217.84Z" fill="url(#paint69_linear_295_1524)"/>
<path d="M433.648 500.624L433.364 500.473L285 422.347L136.355 500.624L164.729 334.836L44.4839 217.413L44.7992 217.366L210.673 193.224L285 42.3787L285.142 42.6661L359.324 193.224L525.516 217.413L525.286 217.634L405.258 334.83L433.648 500.624ZM45.1617 217.631L165.082 334.735V334.817L136.787 500.062L285 421.99L285.076 422.028L433.228 500.047L404.921 334.735L404.98 334.675L524.838 217.647L359.116 193.527L359.078 193.455L285 43.0924L210.887 193.511H210.805L45.1617 217.631Z" fill="url(#paint70_linear_295_1524)"/>
<path d="M433.648 500.624L433.364 500.473L285 422.347L136.355 500.624L164.729 334.836L44.4839 217.413L44.7992 217.366L210.673 193.224L285 42.3787L285.142 42.6661L359.324 193.224L525.516 217.413L525.286 217.634L405.258 334.83L433.648 500.624ZM45.1617 217.631L165.082 334.735V334.817L136.787 500.062L285 421.99L285.076 422.028L433.228 500.047L404.921 334.735L404.98 334.675L524.838 217.647L359.116 193.527L359.078 193.455L285 43.0924L210.887 193.511H210.805L45.1617 217.631Z" fill="url(#paint71_linear_295_1524)"/>
<path d="M434.704 502.251L434.423 502.102L285 423.417L135.296 502.251L163.888 335.278L42.7754 217.028L43.0907 216.981L210.15 192.665L285 40.7366L285.142 41.024L359.86 192.653L527.231 217.016L527.004 217.24L406.119 335.265L434.704 502.251ZM285 423.061L285.076 423.102L434.285 501.676L405.775 335.168L405.835 335.111L526.55 217.262L359.642 192.946L359.608 192.87L285 41.4629L210.358 192.946H210.276L43.4532 217.262L164.228 335.18V335.262L135.731 501.682L285 423.061Z" fill="url(#paint72_linear_295_1524)"/>
<path d="M435.277 503.135L434.994 502.987L285 423.999L134.725 503.135L134.779 502.819L163.424 335.524L41.8481 216.82L42.1634 216.772L209.859 192.365L285 39.8682L285.142 40.1524L360.137 192.362L528.151 216.817L527.924 217.041L406.576 335.524L435.277 503.135ZM285 423.642L285.075 423.68L434.858 502.557L406.238 335.414L406.298 335.354L527.474 217.041L359.929 192.653L359.891 192.58L285 40.5787L210.071 192.653H209.989L42.526 217.041L163.764 335.414L163.749 335.496L135.145 502.548L285 423.642Z" fill="url(#paint73_linear_295_1524)"/>
<path d="M435.851 504.019L435.568 503.871L285 424.583L134.152 504.019L162.961 335.768L40.9214 216.611L41.2367 216.564L209.588 192.062L285 38.9808L285.142 39.2682L360.427 192.062L529.094 216.611L528.864 216.832L407.055 335.768L435.851 504.019ZM41.615 216.832L163.307 335.657V335.739L134.593 503.441L285 424.226L285.076 424.264L435.432 503.441L406.692 335.657L406.752 335.6L528.394 216.832L360.207 192.353L360.172 192.277L285 39.6945L209.784 192.353H209.702L41.615 216.832Z" fill="url(#paint74_linear_295_1524)"/>
<path d="M436.327 504.764L436.044 504.613L285 425.072L133.673 504.764L133.726 504.449L162.573 335.973L40.1396 216.435L40.4549 216.39L209.336 191.809L285 38.2387L285.142 38.5261L360.664 191.809L529.86 216.441L529.63 216.665L407.427 335.979L436.327 504.764ZM285 424.715L285.076 424.753L435.914 504.187L407.093 335.872L407.153 335.815L529.186 216.665L360.459 192.106L360.421 192.034L285 38.9524L209.544 192.109H209.462L40.8175 216.656L162.91 335.862V335.944L134.086 504.187L285 424.715Z" fill="url(#paint75_linear_295_1524)"/>
<path d="M436.907 505.649L436.624 505.5L285 425.653L133.096 505.649L133.149 505.333L162.106 336.219L39.2095 216.22L39.5247 216.172L209.043 191.5L285 37.3545L285.142 37.6419L360.954 191.506L530.79 216.226L530.563 216.45L407.897 336.219L436.907 505.649ZM39.8873 216.447L162.444 336.109V336.191L133.512 505.071L285 425.296L285.076 425.334L436.488 505.071L407.556 336.109L407.616 336.049L530.112 216.447L360.746 191.794L360.708 191.721L285 38.0682L209.257 191.794H209.175L39.8873 216.447Z" fill="url(#paint76_linear_295_1524)"/>
<path d="M436.907 505.649L436.624 505.5L285 425.653L133.096 505.649L133.149 505.333L162.106 336.219L39.2095 216.22L39.5247 216.172L209.043 191.5L285 37.3545L285.142 37.6419L360.954 191.506L530.79 216.226L530.563 216.45L407.897 336.219L436.907 505.649ZM39.8873 216.447L162.444 336.109V336.191L133.512 505.071L285 425.296L285.076 425.334L436.488 505.071L407.556 336.109L407.616 336.049L530.112 216.447L360.746 191.794L360.708 191.721L285 38.0682L209.257 191.794H209.175L39.8873 216.447Z" fill="url(#paint77_linear_295_1524)"/>
<path d="M438.446 508.02L438.165 507.872L285 427.216L131.554 508.02L131.607 507.704L160.861 336.863L36.7188 215.683L37.034 215.636L208.274 190.71L285 34.9798L285.142 35.2672L361.723 190.695L533.281 215.683L533.054 215.904L409.155 336.889L438.446 508.02ZM37.3966 215.885L161.198 336.762V336.844L131.986 507.445L285 426.86L285.075 426.897L438.03 507.445L408.801 336.762L408.861 336.705L532.603 215.885L361.515 190.985L361.477 190.909L285 35.684L208.488 190.985H208.406L37.3966 215.885Z" fill="url(#paint78_linear_295_1524)"/>
<path d="M439.02 508.904L438.739 508.756L285 427.797L130.98 508.904L160.398 337.116L35.792 215.459L36.1073 215.411L207.99 190.395L285 34.1051L285.142 34.3924L362.01 190.392L534.208 215.456L533.981 215.677L409.605 337.116L439.02 508.904ZM285 427.441L285.076 427.479L438.61 508.32L409.29 337.002L409.347 336.942L533.561 215.68L361.83 190.685L361.792 190.613L285 34.8093L208.201 190.682H208.119L36.4698 215.683L160.735 337.009V337.091L131.415 508.326L285 427.441Z" fill="url(#paint79_linear_295_1524)"/>
<path d="M439.505 509.65L439.222 509.501L285 428.287L130.498 509.65L130.551 509.334L160.007 337.324L35.0103 215.282L35.3255 215.235L207.76 190.139L285 33.3503L285.142 33.6377L362.24 190.139L535.006 215.282L534.775 215.506L409.996 337.324L439.505 509.65ZM285 427.933L285.076 427.971L439.086 509.072L409.659 337.214L409.716 337.157L534.315 215.503L362.045 190.42L362.007 190.347L285 34.064L207.959 190.42H207.877L35.6881 215.503L160.344 337.214V337.296L130.93 509.084L285 427.933Z" fill="url(#paint80_linear_295_1524)"/>
<path d="M440.076 510.534L439.796 510.385L285 428.871L129.924 510.534L159.543 337.577L34.0835 215.073L34.3988 215.026L207.464 189.839L285 32.4693L285.142 32.7567L362.555 189.839L535.951 215.073L535.721 215.295L410.476 337.577L440.076 510.534ZM285 428.524L285.076 428.562L439.657 509.965L410.123 337.466L410.179 337.41L535.242 215.304L362.328 190.136L362.294 190.06L285 33.183L207.672 190.129H207.59L34.7613 215.285L159.881 337.447V337.53L130.356 509.95L285 428.524Z" fill="url(#paint81_linear_295_1524)"/>
<path d="M440.561 511.279L440.278 511.131L285 429.361L129.442 511.279L129.495 510.963L159.149 337.773L33.2983 214.897L33.6136 214.849L207.218 189.586L285 31.7209L285.142 32.0082L362.782 189.586L536.702 214.9L536.475 215.124L410.851 337.776L440.561 511.279ZM285 429.004L285.076 429.042L440.142 510.701L410.507 337.65L410.567 337.593L536.018 215.105L362.565 189.842L362.53 189.769L285 32.4346L207.445 189.87H207.363L33.9762 215.118L159.49 337.662L159.474 337.744L129.861 510.701L285 429.004Z" fill="url(#paint82_linear_295_1524)"/>
<path d="M441.617 512.909L441.334 512.76L285 430.434L128.385 512.909L128.439 512.593L158.295 338.224L31.5894 214.511L31.9046 214.467L206.691 189.027L285 30.0914L285.142 30.3788L363.309 189.027L538.413 214.511L538.183 214.736L411.705 338.209L441.617 512.909ZM32.2672 214.736L158.635 338.114L158.619 338.196L128.801 512.331L285 430.077L285.075 430.115L441.198 512.331L411.368 338.114L411.428 338.057L537.736 214.736L363.1 189.315L363.063 189.239L285 30.8051L206.902 189.33H206.82L32.2672 214.736Z" fill="url(#paint83_linear_295_1524)"/>
<path d="M442.103 513.657L441.822 513.509L285 430.927L127.897 513.663L127.95 513.348L157.901 338.436L30.8013 214.335L31.1165 214.29L206.445 188.768L285 29.343L285.142 29.6304L363.551 188.768L539.198 214.347L538.971 214.571L412.099 338.445L442.103 513.657ZM285 430.57L285.075 430.608L441.687 513.082L411.762 338.322L411.822 338.262L538.521 214.556L363.343 189.059L363.305 188.983L285 30.0567L206.659 189.059H206.578L31.4791 214.543L158.241 338.31L158.225 338.392L128.313 513.082L285 430.57Z" fill="url(#paint84_linear_295_1524)"/>
<path d="M442.674 514.538L442.393 514.39L285 431.505L127.326 514.538L157.441 338.676L29.8779 214.126L30.1932 214.082L206.162 188.468L285 28.4651L285.142 28.7493L363.839 188.468L540.122 214.126L539.892 214.35L412.563 338.676L442.674 514.538ZM285 431.151L285.076 431.189L442.255 513.96L412.222 338.565L412.282 338.505L539.445 214.347L363.627 188.768L363.593 188.693L285 29.1788L206.373 188.759H206.291L30.5558 214.338L157.778 338.556V338.635L127.746 513.96L285 431.151Z" fill="url(#paint85_linear_295_1524)"/>
<path d="M443.733 516.168L443.449 516.019L285 432.578L126.27 516.168L156.586 339.124L28.1689 213.757L28.4842 213.709L205.635 187.925L285 26.8419L285.142 27.1293L364.365 187.919L541.834 213.75L541.604 213.971L413.417 339.131L443.733 516.168ZM285 432.222L285.076 432.26L443.314 515.59L413.077 339.014L413.136 338.957L541.156 213.962L364.157 188.209L364.119 188.137L285 27.5493L205.846 188.209H205.764L28.8468 213.962L156.923 339.014V339.096L126.702 515.59L285 432.222Z" fill="url(#paint86_linear_295_1524)"/>
<path d="M444.209 516.919L443.925 516.768L285 433.074L125.791 516.919L156.198 339.333L27.3809 213.567L27.6961 213.52L205.392 187.657L285 26.0841L285.142 26.3714L364.611 187.657L542.622 213.551L542.392 213.772L413.811 339.317L444.209 516.919ZM28.0587 213.788L156.529 339.225V339.308L126.201 516.341L285 432.718L285.076 432.755L443.799 516.341L413.471 339.222L413.531 339.165L541.941 213.788L364.397 187.947L364.362 187.875L285 26.7977L205.6 187.944H205.518L28.0587 213.788Z" fill="url(#paint87_linear_295_1524)"/>
<path d="M444.789 517.797L444.506 517.649L285 433.652L125.214 517.797L155.741 339.576L26.4824 213.359L26.7977 213.311L205.106 187.357L285 25.2062L285.142 25.4935L364.904 187.357L543.552 213.359L543.326 213.583L414.281 339.582L444.789 517.797ZM285 433.295L285.076 433.333L444.37 517.219L413.944 339.472L414.004 339.412L542.875 213.586L364.696 187.65L364.658 187.578L285 25.9199L205.317 187.644H205.235L27.135 213.58L156.057 339.472L156.041 339.554L125.633 517.219L285 433.295Z" fill="url(#paint88_linear_295_1524)"/>
<path d="M445.275 518.549L444.994 518.397L285 434.145L124.725 518.549L155.334 339.788L25.6689 213.182L25.9842 213.135L204.86 187.101L285 24.4546L285.142 24.742L365.137 187.101L544.331 213.182L544.104 213.403L414.666 339.788L445.275 518.549ZM285 433.788L285.076 433.829L444.859 517.971L414.328 339.674L414.388 339.614L543.647 213.4L364.923 187.388L364.885 187.313L285 25.1683L205.074 187.388H204.992L26.3468 213.4L155.675 339.674L155.659 339.756L125.16 517.971L285 433.788Z" fill="url(#paint89_linear_295_1524)"/>
<path d="M445.275 518.549L444.994 518.397L285 434.145L124.725 518.549L155.334 339.788L25.6689 213.182L25.9842 213.135L204.86 187.101L285 24.4546L285.142 24.742L365.137 187.101L544.331 213.182L544.104 213.403L414.666 339.788L445.275 518.549ZM285 433.788L285.076 433.829L444.859 517.971L414.328 339.674L414.388 339.614L543.647 213.4L364.923 187.388L364.885 187.313L285 25.1683L205.074 187.388H204.992L26.3468 213.4L155.675 339.674L155.659 339.756L125.16 517.971L285 433.788Z" fill="url(#paint90_linear_295_1524)"/>
<path d="M446.902 521.05L446.621 520.901L285 435.787L123.099 521.05L154.02 340.47L23.0366 212.588L23.3519 212.544L204.046 186.242L285 21.9472L285.142 22.2346L365.951 186.242L546.964 212.588L546.737 212.812L415.984 340.476L446.902 521.05ZM285 435.44L285.076 435.481L446.492 520.478L415.649 340.365L415.709 340.309L546.292 212.809L365.749 186.533L365.711 186.457L285 22.6609L204.261 186.533H204.179L23.7144 212.809L154.357 340.365V340.447L123.531 520.478L285 435.44Z" fill="url(#paint91_linear_295_1524)"/>
<path d="M446.902 521.05L446.621 520.901L285 435.787L123.099 521.05L154.02 340.47L23.0366 212.588L23.3519 212.544L204.046 186.242L285 21.9472L285.142 22.2346L365.951 186.242L546.964 212.588L546.737 212.812L415.984 340.476L446.902 521.05ZM285 435.44L285.076 435.481L446.492 520.478L415.649 340.365L415.709 340.309L546.292 212.809L365.749 186.533L365.711 186.457L285 22.6609L204.261 186.533H204.179L23.7144 212.809L154.357 340.365V340.447L123.531 520.478L285 435.44Z" fill="url(#paint92_linear_295_1524)"/>
<path d="M449.017 524.315L448.736 524.166L285 437.944L120.983 524.315L152.308 341.366L19.6157 211.821L19.931 211.773L202.993 185.131L285 18.6883L285.142 18.9725L367.01 185.131L550.384 211.821L550.157 212.042L417.692 341.366L449.017 524.315ZM285 437.587L285.076 437.625L448.597 523.737L417.355 341.265L417.415 341.209L549.706 212.051L366.799 185.431L366.764 185.355L285 19.402L203.201 185.418H203.119L20.2935 212.039L152.648 341.265L152.633 341.347L121.402 523.737L285 437.587Z" fill="url(#paint93_linear_295_1524)"/>
<path d="M449.017 524.315L448.736 524.166L285 437.944L120.983 524.315L152.308 341.366L19.6157 211.821L19.931 211.773L202.993 185.131L285 18.6883L285.142 18.9725L367.01 185.131L550.384 211.821L550.157 212.042L417.692 341.366L449.017 524.315ZM285 437.587L285.076 437.625L448.597 523.737L417.355 341.265L417.415 341.209L549.706 212.051L366.799 185.431L366.764 185.355L285 19.402L203.201 185.418H203.119L20.2935 212.039L152.648 341.265L152.633 341.347L121.402 523.737L285 437.587Z" fill="url(#paint94_linear_295_1524)"/>
<path d="M449.506 525.066L449.225 524.918L285 438.44L120.495 525.066L151.914 341.594L18.8247 211.641L19.14 211.597L202.747 184.872L285 17.9336L285.142 18.2209L367.253 184.872L551.176 211.641L550.946 211.865L418.09 341.584L449.506 525.066ZM19.5025 211.862L152.251 341.474V341.556L120.927 524.489L285 438.083L285.076 438.121L449.086 524.489L417.749 341.474L417.809 341.417L550.498 211.862L367.045 185.162L367.007 185.086L285 18.6473L202.959 185.162H202.877L19.5025 211.862Z" fill="url(#paint95_linear_295_1524)"/>
<path d="M450.489 526.582L450.205 526.434L285.006 439.434L119.52 526.592L151.119 341.998L17.2354 211.284L17.5506 211.237L202.255 184.354L285 16.421L285.142 16.7052L367.741 184.354L552.761 211.284L552.534 211.508L418.884 341.998L450.489 526.582ZM285 439.081L285.075 439.119L450.07 526.004L418.543 341.9L418.603 341.84L552.089 211.511L367.536 184.644L367.498 184.568L285 17.1315L202.466 184.644H202.384L17.9132 211.486L151.456 341.875V341.957L119.946 525.985L285 439.081Z" fill="url(#paint96_linear_295_1524)"/>
<path d="M451.053 527.454L450.773 527.305L285 440.009L118.947 527.454L150.662 342.244L16.3213 211.079L16.6366 211.031L201.975 184.057L285 15.5462L285.142 15.8336L368.028 184.057L553.682 211.079L553.452 211.303L419.341 342.244L451.053 527.454ZM16.9991 211.3L150.987 342.134V342.216L119.366 526.876L285 439.652L285.076 439.693L450.634 526.876L419 342.14L419.06 342.083L553.004 211.306L367.817 184.351L367.782 184.278L285 16.2599L202.183 184.344H202.101L16.9991 211.3Z" fill="url(#paint97_linear_295_1524)"/>
<path d="M451.053 527.454L450.773 527.305L285 440.009L118.947 527.454L150.662 342.244L16.3213 211.079L16.6366 211.031L201.975 184.057L285 15.5462L285.142 15.8336L368.028 184.057L553.682 211.079L553.452 211.303L419.341 342.244L451.053 527.454ZM16.9991 211.3L150.987 342.134V342.216L119.366 526.876L285 439.652L285.076 439.693L450.634 526.876L419 342.14L419.06 342.083L553.004 211.306L367.817 184.351L367.782 184.278L285 16.2599L202.183 184.344H202.101L16.9991 211.3Z" fill="url(#paint98_linear_295_1524)"/>
<path d="M452.113 529.083L451.829 528.935L285 441.083L117.89 529.083L149.805 342.696L14.6094 210.694L14.9246 210.646L201.445 183.488L284.991 13.9104L285.132 14.1978L368.545 183.501L555.381 210.694L555.151 210.918L420.183 342.696L452.113 529.083ZM15.2872 210.915L150.145 342.598L150.129 342.68L118.31 528.521L285 440.732L285.076 440.77L451.693 528.515L419.852 342.592L419.912 342.532L554.716 210.915L368.347 183.788L368.309 183.713L285 14.6304L201.653 183.788H201.571L15.2872 210.915Z" fill="url(#paint99_linear_295_1524)"/>
<path d="M452.113 529.083L451.829 528.935L285 441.083L117.89 529.083L149.805 342.696L14.6094 210.694L14.9246 210.646L201.445 183.488L284.991 13.9104L285.132 14.1978L368.545 183.501L555.381 210.694L555.151 210.918L420.183 342.696L452.113 529.083ZM15.2872 210.915L150.145 342.598L150.129 342.68L118.31 528.521L285 440.732L285.076 440.77L451.693 528.515L419.852 342.592L419.912 342.532L554.716 210.915L368.347 183.788L368.309 183.713L285 14.6304L201.653 183.788H201.571L15.2872 210.915Z" fill="url(#paint100_linear_295_1524)"/>
<path d="M453.169 530.716L452.888 530.568L285 442.156L116.831 530.716L116.885 530.4L148.95 343.138L12.8975 210.315L13.2127 210.27L200.915 182.948L285 12.2873L285.142 12.5747L369.084 182.942L557.102 210.315L556.875 210.539L421.053 343.151L453.169 530.716ZM13.5753 210.529L149.288 343.037V343.116L117.25 530.138L285 441.787L285.076 441.825L452.75 530.125L420.712 343.024L420.772 342.964L556.443 210.529L368.892 183.233L368.854 183.157L285 13.001L201.139 183.233H201.057L13.5753 210.529Z" fill="url(#paint101_linear_295_1524)"/>
<path d="M453.169 530.716L452.888 530.568L285 442.156L116.831 530.716L116.885 530.4L148.95 343.138L12.8975 210.315L13.2127 210.27L200.915 182.948L285 12.2873L285.142 12.5747L369.084 182.942L557.102 210.315L556.875 210.539L421.053 343.151L453.169 530.716ZM13.5753 210.529L149.288 343.037V343.116L117.25 530.138L285 441.787L285.076 441.825L452.75 530.125L420.712 343.024L420.772 342.964L556.443 210.529L368.892 183.233L368.854 183.157L285 13.001L201.139 183.233H201.057L13.5753 210.529Z" fill="url(#paint102_linear_295_1524)"/>
<path d="M454.228 532.345L453.944 532.197L285 443.23L115.775 532.345L115.828 532.029L148.093 343.596L11.1855 209.923L11.5008 209.879L200.386 182.386L285 10.6547L285.142 10.942L369.614 182.386L558.814 209.923L558.587 210.147L421.907 343.596L454.228 532.345ZM285 442.873L285.076 442.911L453.809 531.767L421.57 343.485L421.63 343.429L558.14 210.144L369.406 182.671L369.368 182.598L285 11.3684L200.597 182.674H200.515L11.8634 210.147L148.433 343.489L148.417 343.571L116.194 531.78L285 442.873Z" fill="url(#paint103_linear_295_1524)"/>
<path d="M454.228 532.345L453.944 532.197L285 443.23L115.775 532.345L115.828 532.029L148.093 343.596L11.1855 209.923L11.5008 209.879L200.386 182.386L285 10.6547L285.142 10.942L369.614 182.386L558.814 209.923L558.587 210.147L421.907 343.596L454.228 532.345ZM285 442.873L285.076 442.911L453.809 531.767L421.57 343.485L421.63 343.429L558.14 210.144L369.406 182.671L369.368 182.598L285 11.3684L200.597 182.674H200.515L11.8634 210.147L148.433 343.489L148.417 343.571L116.194 531.78L285 442.873Z" fill="url(#paint104_linear_295_1524)"/>
<path d="M455.284 533.975L455.004 533.826L285 444.313L114.716 533.997L147.229 344.047L9.45801 209.538L9.77327 209.493L199.844 181.827L285 9.02521L285.142 9.31257L370.144 181.827L560.542 209.538L560.315 209.762L422.771 344.047L455.284 533.975ZM285 443.947L285.076 443.985L454.868 533.4L422.424 343.927L422.484 343.871L559.852 209.749L369.933 182.118L369.898 182.042L285 9.73889L200.068 182.118H199.986L10.1516 209.759L147.576 343.937V344.019L115.135 533.4L285 443.947Z" fill="url(#paint105_linear_295_1524)"/>
<path d="M456.344 535.607L456.06 535.459L285 445.377L113.659 535.607L146.381 344.499L7.76172 209.152L8.07698 209.108L199.33 181.262L285 7.39575L285.142 7.67996L370.673 181.262L562.238 209.143L562.011 209.367L423.609 344.49L456.344 535.607ZM285 445.021L285.076 445.058L455.924 535.03L423.282 344.389L423.342 344.329L561.563 209.367L370.462 181.553L370.427 181.48L284.99 8.11259L199.538 181.559H199.456L8.43954 209.367L146.721 344.382L146.706 344.464L114.076 535.023L285 445.021Z" fill="url(#paint106_linear_295_1524)"/>
<path d="M456.344 535.607L456.06 535.459L285 445.377L113.659 535.607L146.381 344.499L7.76172 209.152L8.07698 209.108L199.33 181.262L285 7.39575L285.142 7.67996L370.673 181.262L562.238 209.143L562.011 209.367L423.609 344.49L456.344 535.607ZM285 445.021L285.076 445.058L455.924 535.03L423.282 344.389L423.342 344.329L561.563 209.367L370.462 181.553L370.427 181.48L284.99 8.11259L199.538 181.559H199.456L8.43954 209.367L146.721 344.382L146.706 344.464L114.076 535.023L285 445.021Z" fill="url(#paint107_linear_295_1524)"/>
<path d="M457.403 537.237L457.119 537.088L285 446.451L112.6 537.237L145.526 344.947L6.0498 208.767L6.36507 208.723L198.8 180.713L285 5.76312L285.142 6.05049L371.209 180.713L563.959 208.767L563.732 208.991L424.486 344.947L457.403 537.237ZM6.72763 208.988L145.864 344.84V344.922L113.019 536.662L285 446.094L285.076 446.132L456.984 536.662L424.136 344.84L424.196 344.783L563.275 208.995L370.992 181.009L370.954 180.934L285 6.4768L199.011 181.003H198.926L6.72763 208.988Z" fill="url(#paint108_linear_295_1524)"/>
<path d="M457.967 538.102L457.684 537.954L285 447.026L112.036 538.102L112.09 537.786L145.069 345.181L5.13574 208.562L5.45101 208.518L198.516 180.413L285 4.89156L285.142 5.17892L371.484 180.416L564.867 208.562L564.637 208.786L424.934 345.191L457.967 538.102ZM285 446.669L285.076 446.707L457.548 537.534L424.596 345.08L424.653 345.02L564.19 208.783L371.276 180.706L371.238 180.631L285 5.60524L198.728 180.706H198.646L5.81356 208.783L145.407 345.08V345.162L112.452 537.534L285 446.669Z" fill="url(#paint109_linear_295_1524)"/>
<path d="M459.027 539.741L458.743 539.593L285 448.103L110.974 539.744L144.209 345.642L3.42383 208.177L3.73909 208.132L197.987 179.86L285 3.26208L285.142 3.54945L372.013 179.86L566.579 208.177L566.349 208.401L425.788 345.639L459.027 539.741ZM4.0985 208.398L144.549 345.529L144.534 345.611L111.396 539.163L285 447.743L285.076 447.781L458.607 539.163L425.451 345.529L425.511 345.472L565.902 208.398L371.805 180.147L371.767 180.075L285 3.97577L198.198 180.147H198.116L4.0985 208.398Z" fill="url(#paint110_linear_295_1524)"/>
<path d="M459.027 539.741L458.743 539.593L285 448.103L110.974 539.744L144.209 345.642L3.42383 208.177L3.73909 208.132L197.987 179.86L285 3.26208L285.142 3.54945L372.013 179.86L566.579 208.177L566.349 208.401L425.788 345.639L459.027 539.741ZM4.0985 208.398L144.549 345.529L144.534 345.611L111.396 539.163L285 447.743L285.076 447.781L458.607 539.163L425.451 345.529L425.511 345.472L565.902 208.398L371.805 180.147L371.767 180.075L285 3.97577L198.198 180.147H198.116L4.0985 208.398Z" fill="url(#paint111_linear_295_1524)"/>
<path d="M459.518 540.499L459.234 540.351L285 448.598L110.485 540.493L110.538 540.177L143.814 345.851L2.62598 208L2.94124 207.952L197.744 179.601L285 2.50104L285.142 2.7884L372.259 179.601L567.374 208L567.147 208.221L426.188 345.851L459.518 540.499ZM285 448.242L285.075 448.28L459.102 539.921L425.851 345.74L425.911 345.683L566.702 208.218L372.054 179.888L372.016 179.813L285 3.21472L197.952 179.888H197.87L3.3038 208.218L144.152 345.74V345.822L110.904 539.921L285 448.242Z" fill="url(#paint112_linear_295_1524)"/>
<path d="M460.083 541.371L459.802 541.222L285 449.173L109.917 541.383L143.358 346.103L1.71191 207.788L2.02718 207.741L197.46 179.295L285 1.62947L285.142 1.91684L372.543 179.301L568.291 207.788L568.061 208.009L426.646 346.103L460.083 541.371ZM2.38973 208.012L143.695 345.98V346.062L110.343 540.793L285 448.816L285.076 448.854L459.657 540.793L426.299 345.98L426.359 345.923L567.598 208.012L372.316 179.592L372.281 179.516L285 2.34315L197.671 179.592H197.59L2.38973 208.012Z" fill="url(#paint113_linear_295_1524)"/>
<path d="M460.65 542.245L460.366 542.097L285 449.748L109.353 542.245L142.897 346.334L0.794434 207.586L1.1097 207.542L197.176 179.004L285 0.757889L285.142 1.04526L372.827 179.004L569.206 207.586L568.979 207.81L427.109 346.334L460.65 542.245ZM285 449.391L285.076 449.429L460.231 541.667L426.765 346.223L426.825 346.163L568.528 207.807L372.615 179.292L372.581 179.219L285 1.47157L197.385 179.292H197.303L1.47225 207.807L143.238 346.223V346.302L109.769 541.667L285 449.391Z" fill="url(#paint114_linear_295_1524)"/>
<path d="M461.142 543L460.858 542.852L285 450.247L108.861 543L108.915 542.684L142.5 346.542L0 207.409L0.315265 207.362L196.931 178.736L285 0L285.142 0.287367L373.073 178.736L570 207.409L569.773 207.63L427.5 346.542L461.142 543ZM285 449.89L285.076 449.928L460.723 542.425L427.163 346.419L427.223 346.362L569.325 207.615L372.861 179.02L372.827 178.947L285 0.71368L197.139 179.033H197.057L0.677821 207.627L142.84 346.419L142.825 346.501L109.28 542.413L285 449.89Z" fill="url(#paint115_linear_295_1524)"/>
<defs>
<linearGradient id="paint0_linear_295_1524" x1="284.082" y1="408.061" x2="285.572" y2="135.422" gradientUnits="userSpaceOnUse">
<stop stop-color="#EC008C"/>
<stop offset="1" stop-color="#27AAE1"/>
</linearGradient>
<linearGradient id="paint1_linear_295_1524" x1="284.082" y1="408.061" x2="285.572" y2="135.422" gradientUnits="userSpaceOnUse">
<stop stop-color="#EC008C"/>
<stop offset="1" stop-color="#27AAE1"/>
</linearGradient>
<linearGradient id="paint2_linear_295_1524" x1="284.082" y1="408.061" x2="285.572" y2="135.422" gradientUnits="userSpaceOnUse">
<stop stop-color="#EC008C"/>
<stop offset="1" stop-color="#27AAE1"/>
</linearGradient>
<linearGradient id="paint3_linear_295_1524" x1="284.07" y1="409.769" x2="285.579" y2="133.72" gradientUnits="userSpaceOnUse">
<stop stop-color="#EC008C"/>
<stop offset="1" stop-color="#27AAE1"/>
</linearGradient>
<linearGradient id="paint4_linear_295_1524" x1="284.07" y1="409.769" x2="285.579" y2="133.72" gradientUnits="userSpaceOnUse">
<stop stop-color="#EC008C"/>
<stop offset="1" stop-color="#27AAE1"/>
</linearGradient>
<linearGradient id="paint5_linear_295_1524" x1="284.048" y1="413.047" x2="285.591" y2="130.455" gradientUnits="userSpaceOnUse">
<stop stop-color="#EC008C"/>
<stop offset="1" stop-color="#27AAE1"/>
</linearGradient>
<linearGradient id="paint6_linear_295_1524" x1="284.048" y1="413.047" x2="285.591" y2="130.455" gradientUnits="userSpaceOnUse">
<stop stop-color="#EC008C"/>
<stop offset="1" stop-color="#27AAE1"/>
</linearGradient>
<linearGradient id="paint7_linear_295_1524" x1="284.038" y1="414.683" x2="285.601" y2="128.822" gradientUnits="userSpaceOnUse">
<stop stop-color="#EC008C"/>
<stop offset="1" stop-color="#27AAE1"/>
</linearGradient>
<linearGradient id="paint8_linear_295_1524" x1="284.026" y1="416.322" x2="285.608" y2="127.19" gradientUnits="userSpaceOnUse">
<stop stop-color="#EC008C"/>
<stop offset="1" stop-color="#27AAE1"/>
</linearGradient>
<linearGradient id="paint9_linear_295_1524" x1="284.016" y1="417.961" x2="285.614" y2="125.554" gradientUnits="userSpaceOnUse">
<stop stop-color="#EC008C"/>
<stop offset="1" stop-color="#27AAE1"/>
</linearGradient>
<linearGradient id="paint10_linear_295_1524" x1="284.01" y1="418.82" x2="285.617" y2="124.701" gradientUnits="userSpaceOnUse">
<stop stop-color="#EC008C"/>
<stop offset="1" stop-color="#27AAE1"/>
</linearGradient>
<linearGradient id="paint11_linear_295_1524" x1="283.975" y1="423.736" x2="285.639" y2="119.804" gradientUnits="userSpaceOnUse">
<stop stop-color="#EC008C"/>
<stop offset="1" stop-color="#27AAE1"/>
</linearGradient>
<linearGradient id="paint12_linear_295_1524" x1="283.975" y1="423.736" x2="285.639" y2="119.804" gradientUnits="userSpaceOnUse">
<stop stop-color="#EC008C"/>
<stop offset="1" stop-color="#27AAE1"/>
</linearGradient>
<linearGradient id="paint13_linear_295_1524" x1="283.972" y1="424.516" x2="285.643" y2="119.024" gradientUnits="userSpaceOnUse">
<stop stop-color="#EC008C"/>
<stop offset="1" stop-color="#27AAE1"/>
</linearGradient>
<linearGradient id="paint14_linear_295_1524" x1="283.966" y1="425.372" x2="285.645" y2="118.171" gradientUnits="userSpaceOnUse">
<stop stop-color="#EC008C"/>
<stop offset="1" stop-color="#27AAE1"/>
</linearGradient>
<linearGradient id="paint15_linear_295_1524" x1="283.96" y1="426.155" x2="285.649" y2="117.391" gradientUnits="userSpaceOnUse">
<stop stop-color="#EC008C"/>
<stop offset="1" stop-color="#27AAE1"/>
</linearGradient>
<linearGradient id="paint16_linear_295_1524" x1="283.944" y1="428.65" x2="285.658" y2="114.906" gradientUnits="userSpaceOnUse">
<stop stop-color="#EC008C"/>
<stop offset="1" stop-color="#27AAE1"/>
</linearGradient>
<linearGradient id="paint17_linear_295_1524" x1="283.931" y1="430.374" x2="285.665" y2="113.188" gradientUnits="userSpaceOnUse">
<stop stop-color="#EC008C"/>
<stop offset="1" stop-color="#27AAE1"/>
</linearGradient>
<linearGradient id="paint18_linear_295_1524" x1="283.922" y1="432.01" x2="285.671" y2="111.555" gradientUnits="userSpaceOnUse">
<stop stop-color="#EC008C"/>
<stop offset="1" stop-color="#27AAE1"/>
</linearGradient>
<linearGradient id="paint19_linear_295_1524" x1="283.916" y1="432.787" x2="285.674" y2="110.781" gradientUnits="userSpaceOnUse">
<stop stop-color="#EC008C"/>
<stop offset="1" stop-color="#27AAE1"/>
</linearGradient>
<linearGradient id="paint20_linear_295_1524" x1="283.875" y1="438.762" x2="285.7" y2="104.829" gradientUnits="userSpaceOnUse">
<stop stop-color="#EC008C"/>
<stop offset="1" stop-color="#27AAE1"/>
</linearGradient>
<linearGradient id="paint21_linear_295_1524" x1="283.865" y1="440.445" x2="285.709" y2="103.152" gradientUnits="userSpaceOnUse">
<stop stop-color="#EC008C"/>
<stop offset="1" stop-color="#27AAE1"/>
</linearGradient>
<linearGradient id="paint22_linear_295_1524" x1="283.859" y1="441.291" x2="285.712" y2="102.306" gradientUnits="userSpaceOnUse">
<stop stop-color="#EC008C"/>
<stop offset="1" stop-color="#27AAE1"/>
</linearGradient>
<linearGradient id="paint23_linear_295_1524" x1="283.852" y1="442.144" x2="285.715" y2="101.459" gradientUnits="userSpaceOnUse">
<stop stop-color="#EC008C"/>
<stop offset="1" stop-color="#27AAE1"/>
</linearGradient>
<linearGradient id="paint24_linear_295_1524" x1="283.84" y1="443.858" x2="285.722" y2="99.751" gradientUnits="userSpaceOnUse">
<stop stop-color="#EC008C"/>
<stop offset="1" stop-color="#27AAE1"/>
</linearGradient>
<linearGradient id="paint25_linear_295_1524" x1="283.837" y1="444.721" x2="285.725" y2="98.8921" gradientUnits="userSpaceOnUse">
<stop stop-color="#EC008C"/>
<stop offset="1" stop-color="#27AAE1"/>
</linearGradient>
<linearGradient id="paint26_linear_295_1524" x1="283.837" y1="444.721" x2="285.725" y2="98.8921" gradientUnits="userSpaceOnUse">
<stop stop-color="#EC008C"/>
<stop offset="1" stop-color="#27AAE1"/>
</linearGradient>
<linearGradient id="paint27_linear_295_1524" x1="283.83" y1="445.586" x2="285.728" y2="98.03" gradientUnits="userSpaceOnUse">
<stop stop-color="#EC008C"/>
<stop offset="1" stop-color="#27AAE1"/>
</linearGradient>
<linearGradient id="paint28_linear_295_1524" x1="283.818" y1="447.326" x2="285.738" y2="96.2932" gradientUnits="userSpaceOnUse">
<stop stop-color="#EC008C"/>
<stop offset="1" stop-color="#27AAE1"/>
</linearGradient>
<linearGradient id="paint29_linear_295_1524" x1="283.799" y1="449.963" x2="285.747" y2="93.669" gradientUnits="userSpaceOnUse">
<stop stop-color="#EC008C"/>
<stop offset="1" stop-color="#27AAE1"/>
</linearGradient>
<linearGradient id="paint30_linear_295_1524" x1="283.799" y1="449.963" x2="285.747" y2="93.669" gradientUnits="userSpaceOnUse">
<stop stop-color="#EC008C"/>
<stop offset="1" stop-color="#27AAE1"/>
</linearGradient>
<linearGradient id="paint31_linear_295_1524" x1="283.793" y1="450.847" x2="285.751" y2="92.7847" gradientUnits="userSpaceOnUse">
<stop stop-color="#EC008C"/>
<stop offset="1" stop-color="#27AAE1"/>
</linearGradient>
<linearGradient id="paint32_linear_295_1524" x1="283.786" y1="451.734" x2="285.754" y2="91.9006" gradientUnits="userSpaceOnUse">
<stop stop-color="#EC008C"/>
<stop offset="1" stop-color="#27AAE1"/>
</linearGradient>
<linearGradient id="paint33_linear_295_1524" x1="283.786" y1="451.734" x2="285.754" y2="91.9006" gradientUnits="userSpaceOnUse">
<stop stop-color="#EC008C"/>
<stop offset="1" stop-color="#27AAE1"/>
</linearGradient>
<linearGradient id="paint34_linear_295_1524" x1="283.783" y1="452.628" x2="285.76" y2="91.0132" gradientUnits="userSpaceOnUse">
<stop stop-color="#EC008C"/>
<stop offset="1" stop-color="#27AAE1"/>
</linearGradient>
<linearGradient id="paint35_linear_295_1524" x1="283.777" y1="453.522" x2="285.763" y2="90.1195" gradientUnits="userSpaceOnUse">
<stop stop-color="#EC008C"/>
<stop offset="1" stop-color="#27AAE1"/>
</linearGradient>
<linearGradient id="paint36_linear_295_1524" x1="283.771" y1="454.418" x2="285.766" y2="89.2258" gradientUnits="userSpaceOnUse">
<stop stop-color="#EC008C"/>
<stop offset="1" stop-color="#27AAE1"/>
</linearGradient>
<linearGradient id="paint37_linear_295_1524" x1="283.771" y1="454.418" x2="285.766" y2="89.2258" gradientUnits="userSpaceOnUse">
<stop stop-color="#EC008C"/>
<stop offset="1" stop-color="#27AAE1"/>
</linearGradient>
<linearGradient id="paint38_linear_295_1524" x1="283.764" y1="455.318" x2="285.77" y2="88.329" gradientUnits="userSpaceOnUse">
<stop stop-color="#EC008C"/>
<stop offset="1" stop-color="#27AAE1"/>
</linearGradient>
<linearGradient id="paint39_linear_295_1524" x1="283.727" y1="461.04" x2="285.795" y2="82.629" gradientUnits="userSpaceOnUse">
<stop stop-color="#EC008C"/>
<stop offset="1" stop-color="#27AAE1"/>
</linearGradient>
<linearGradient id="paint40_linear_295_1524" x1="283.707" y1="463.557" x2="285.804" y2="80.1185" gradientUnits="userSpaceOnUse">
<stop stop-color="#EC008C"/>
<stop offset="1" stop-color="#27AAE1"/>
</linearGradient>
<linearGradient id="paint41_linear_295_1524" x1="283.707" y1="463.557" x2="285.804" y2="80.1185" gradientUnits="userSpaceOnUse">
<stop stop-color="#EC008C"/>
<stop offset="1" stop-color="#27AAE1"/>
</linearGradient>
<linearGradient id="paint42_linear_295_1524" x1="283.698" y1="465.193" x2="285.811" y2="78.4891" gradientUnits="userSpaceOnUse">
<stop stop-color="#EC008C"/>
<stop offset="1" stop-color="#27AAE1"/>
</linearGradient>
<linearGradient id="paint43_linear_295_1524" x1="283.685" y1="466.829" x2="285.817" y2="76.8627" gradientUnits="userSpaceOnUse">
<stop stop-color="#EC008C"/>
<stop offset="1" stop-color="#27AAE1"/>
</linearGradient>
<linearGradient id="paint44_linear_295_1524" x1="283.685" y1="466.829" x2="285.817" y2="76.8627" gradientUnits="userSpaceOnUse">
<stop stop-color="#EC008C"/>
<stop offset="1" stop-color="#27AAE1"/>
</linearGradient>
<linearGradient id="paint45_linear_295_1524" x1="283.67" y1="469.216" x2="285.827" y2="74.4786" gradientUnits="userSpaceOnUse">
<stop stop-color="#EC008C"/>
<stop offset="1" stop-color="#27AAE1"/>
</linearGradient>
<linearGradient id="paint46_linear_295_1524" x1="283.67" y1="469.216" x2="285.827" y2="74.4786" gradientUnits="userSpaceOnUse">
<stop stop-color="#EC008C"/>
<stop offset="1" stop-color="#27AAE1"/>
</linearGradient>
<linearGradient id="paint47_linear_295_1524" x1="283.663" y1="470.097" x2="285.833" y2="73.6038" gradientUnits="userSpaceOnUse">
<stop stop-color="#EC008C"/>
<stop offset="1" stop-color="#27AAE1"/>
</linearGradient>
<linearGradient id="paint48_linear_295_1524" x1="283.654" y1="471.733" x2="285.839" y2="71.9743" gradientUnits="userSpaceOnUse">
<stop stop-color="#EC008C"/>
<stop offset="1" stop-color="#27AAE1"/>
</linearGradient>
<linearGradient id="paint49_linear_295_1524" x1="283.654" y1="471.733" x2="285.839" y2="71.9743" gradientUnits="userSpaceOnUse">
<stop stop-color="#EC008C"/>
<stop offset="1" stop-color="#27AAE1"/>
</linearGradient>
<linearGradient id="paint50_linear_295_1524" x1="283.648" y1="472.488" x2="285.843" y2="71.2196" gradientUnits="userSpaceOnUse">
<stop stop-color="#EC008C"/>
<stop offset="1" stop-color="#27AAE1"/>
</linearGradient>
<linearGradient id="paint51_linear_295_1524" x1="283.641" y1="473.369" x2="285.846" y2="70.3417" gradientUnits="userSpaceOnUse">
<stop stop-color="#EC008C"/>
<stop offset="1" stop-color="#27AAE1"/>
</linearGradient>
<linearGradient id="paint52_linear_295_1524" x1="283.619" y1="476.64" x2="285.859" y2="67.0828" gradientUnits="userSpaceOnUse">
<stop stop-color="#EC008C"/>
<stop offset="1" stop-color="#27AAE1"/>
</linearGradient>
<linearGradient id="paint53_linear_295_1524" x1="283.613" y1="477.521" x2="285.862" y2="66.2049" gradientUnits="userSpaceOnUse">
<stop stop-color="#EC008C"/>
<stop offset="1" stop-color="#27AAE1"/>
</linearGradient>
<linearGradient id="paint54_linear_295_1524" x1="283.613" y1="477.521" x2="285.862" y2="66.2049" gradientUnits="userSpaceOnUse">
<stop stop-color="#EC008C"/>
<stop offset="1" stop-color="#27AAE1"/>
</linearGradient>
<linearGradient id="paint55_linear_295_1524" x1="283.61" y1="478.276" x2="285.865" y2="65.4533" gradientUnits="userSpaceOnUse">
<stop stop-color="#EC008C"/>
<stop offset="1" stop-color="#27AAE1"/>
</linearGradient>
<linearGradient id="paint56_linear_295_1524" x1="283.559" y1="485.52" x2="285.897" y2="58.2345" gradientUnits="userSpaceOnUse">
<stop stop-color="#EC008C"/>
<stop offset="1" stop-color="#27AAE1"/>
</linearGradient>
<linearGradient id="paint57_linear_295_1524" x1="283.559" y1="485.52" x2="285.897" y2="58.2345" gradientUnits="userSpaceOnUse">
<stop stop-color="#EC008C"/>
<stop offset="1" stop-color="#27AAE1"/>
</linearGradient>
<linearGradient id="paint58_linear_295_1524" x1="283.556" y1="486.266" x2="285.9" y2="57.4923" gradientUnits="userSpaceOnUse">
<stop stop-color="#EC008C"/>
<stop offset="1" stop-color="#27AAE1"/>
</linearGradient>
<linearGradient id="paint59_linear_295_1524" x1="283.556" y1="486.266" x2="285.9" y2="57.4923" gradientUnits="userSpaceOnUse">
<stop stop-color="#EC008C"/>
<stop offset="1" stop-color="#27AAE1"/>
</linearGradient>
<linearGradient id="paint60_linear_295_1524" x1="283.556" y1="486.266" x2="285.9" y2="57.4923" gradientUnits="userSpaceOnUse">
<stop stop-color="#EC008C"/>
<stop offset="1" stop-color="#27AAE1"/>
</linearGradient>
<linearGradient id="paint61_linear_295_1524" x1="283.55" y1="487.014" x2="285.903" y2="56.7471" gradientUnits="userSpaceOnUse">
<stop stop-color="#EC008C"/>
<stop offset="1" stop-color="#27AAE1"/>
</linearGradient>
<linearGradient id="paint62_linear_295_1524" x1="283.547" y1="487.766" x2="285.907" y2="55.9987" gradientUnits="userSpaceOnUse">
<stop stop-color="#EC008C"/>
<stop offset="1" stop-color="#27AAE1"/>
</linearGradient>
<linearGradient id="paint63_linear_295_1524" x1="283.54" y1="488.52" x2="285.909" y2="55.2439" gradientUnits="userSpaceOnUse">
<stop stop-color="#EC008C"/>
<stop offset="1" stop-color="#27AAE1"/>
</linearGradient>
<linearGradient id="paint64_linear_295_1524" x1="283.54" y1="488.52" x2="285.909" y2="55.2439" gradientUnits="userSpaceOnUse">
<stop stop-color="#EC008C"/>
<stop offset="1" stop-color="#27AAE1"/>
</linearGradient>
<linearGradient id="paint65_linear_295_1524" x1="283.531" y1="490.042" x2="285.916" y2="53.7281" gradientUnits="userSpaceOnUse">
<stop stop-color="#EC008C"/>
<stop offset="1" stop-color="#27AAE1"/>
</linearGradient>
<linearGradient id="paint66_linear_295_1524" x1="283.487" y1="496.522" x2="285.942" y2="47.2703" gradientUnits="userSpaceOnUse">
<stop stop-color="#EC008C"/>
<stop offset="1" stop-color="#27AAE1"/>
</linearGradient>
<linearGradient id="paint67_linear_295_1524" x1="283.474" y1="498.158" x2="285.948" y2="45.6408" gradientUnits="userSpaceOnUse">
<stop stop-color="#EC008C"/>
<stop offset="1" stop-color="#27AAE1"/>
</linearGradient>
<linearGradient id="paint68_linear_295_1524" x1="283.474" y1="498.158" x2="285.948" y2="45.6408" gradientUnits="userSpaceOnUse">
<stop stop-color="#EC008C"/>
<stop offset="1" stop-color="#27AAE1"/>
</linearGradient>
<linearGradient id="paint69_linear_295_1524" x1="283.459" y1="500.546" x2="285.961" y2="43.263" gradientUnits="userSpaceOnUse">
<stop stop-color="#EC008C"/>
<stop offset="1" stop-color="#27AAE1"/>
</linearGradient>
<linearGradient id="paint70_linear_295_1524" x1="283.452" y1="501.427" x2="285.963" y2="42.3851" gradientUnits="userSpaceOnUse">
<stop stop-color="#EC008C"/>
<stop offset="1" stop-color="#27AAE1"/>
</linearGradient>
<linearGradient id="paint71_linear_295_1524" x1="283.452" y1="501.427" x2="285.963" y2="42.3851" gradientUnits="userSpaceOnUse">
<stop stop-color="#EC008C"/>
<stop offset="1" stop-color="#27AAE1"/>
</linearGradient>
<linearGradient id="paint72_linear_295_1524" x1="283.443" y1="503.062" x2="285.97" y2="40.7556" gradientUnits="userSpaceOnUse">
<stop stop-color="#EC008C"/>
<stop offset="1" stop-color="#27AAE1"/>
</linearGradient>
<linearGradient id="paint73_linear_295_1524" x1="283.436" y1="503.947" x2="285.973" y2="39.8714" gradientUnits="userSpaceOnUse">
<stop stop-color="#EC008C"/>
<stop offset="1" stop-color="#27AAE1"/>
</linearGradient>
<linearGradient id="paint74_linear_295_1524" x1="283.43" y1="504.837" x2="285.976" y2="38.9872" gradientUnits="userSpaceOnUse">
<stop stop-color="#EC008C"/>
<stop offset="1" stop-color="#27AAE1"/>
</linearGradient>
<linearGradient id="paint75_linear_295_1524" x1="283.427" y1="505.582" x2="285.98" y2="38.2419" gradientUnits="userSpaceOnUse">
<stop stop-color="#EC008C"/>
<stop offset="1" stop-color="#27AAE1"/>
</linearGradient>
<linearGradient id="paint76_linear_295_1524" x1="283.42" y1="506.47" x2="285.983" y2="37.3577" gradientUnits="userSpaceOnUse">
<stop stop-color="#EC008C"/>
<stop offset="1" stop-color="#27AAE1"/>
</linearGradient>
<linearGradient id="paint77_linear_295_1524" x1="283.42" y1="506.47" x2="285.983" y2="37.3577" gradientUnits="userSpaceOnUse">
<stop stop-color="#EC008C"/>
<stop offset="1" stop-color="#27AAE1"/>
</linearGradient>
<linearGradient id="paint78_linear_295_1524" x1="283.405" y1="508.851" x2="285.995" y2="34.9861" gradientUnits="userSpaceOnUse">
<stop stop-color="#EC008C"/>
<stop offset="1" stop-color="#27AAE1"/>
</linearGradient>
<linearGradient id="paint79_linear_295_1524" x1="283.398" y1="509.738" x2="285.998" y2="34.1019" gradientUnits="userSpaceOnUse">
<stop stop-color="#EC008C"/>
<stop offset="1" stop-color="#27AAE1"/>
</linearGradient>
<linearGradient id="paint80_linear_295_1524" x1="283.392" y1="510.487" x2="286.002" y2="33.3567" gradientUnits="userSpaceOnUse">
<stop stop-color="#EC008C"/>
<stop offset="1" stop-color="#27AAE1"/>
</linearGradient>
<linearGradient id="paint81_linear_295_1524" x1="283.386" y1="511.371" x2="286.005" y2="32.4725" gradientUnits="userSpaceOnUse">
<stop stop-color="#EC008C"/>
<stop offset="1" stop-color="#27AAE1"/>
</linearGradient>
<linearGradient id="paint82_linear_295_1524" x1="283.383" y1="512.122" x2="286.008" y2="31.7272" gradientUnits="userSpaceOnUse">
<stop stop-color="#EC008C"/>
<stop offset="1" stop-color="#27AAE1"/>
</linearGradient>
<linearGradient id="paint83_linear_295_1524" x1="283.37" y1="513.755" x2="286.014" y2="30.0978" gradientUnits="userSpaceOnUse">
<stop stop-color="#EC008C"/>
<stop offset="1" stop-color="#27AAE1"/>
</linearGradient>
<linearGradient id="paint84_linear_295_1524" x1="283.364" y1="514.51" x2="286.017" y2="29.3493" gradientUnits="userSpaceOnUse">
<stop stop-color="#EC008C"/>
<stop offset="1" stop-color="#27AAE1"/>
</linearGradient>
<linearGradient id="paint85_linear_295_1524" x1="283.361" y1="515.391" x2="286.021" y2="28.4683" gradientUnits="userSpaceOnUse">
<stop stop-color="#EC008C"/>
<stop offset="1" stop-color="#27AAE1"/>
</linearGradient>
<linearGradient id="paint86_linear_295_1524" x1="283.348" y1="517.026" x2="286.027" y2="26.8388" gradientUnits="userSpaceOnUse">
<stop stop-color="#EC008C"/>
<stop offset="1" stop-color="#27AAE1"/>
</linearGradient>
<linearGradient id="paint87_linear_295_1524" x1="283.345" y1="517.778" x2="286.03" y2="26.0904" gradientUnits="userSpaceOnUse">
<stop stop-color="#EC008C"/>
<stop offset="1" stop-color="#27AAE1"/>
</linearGradient>
<linearGradient id="paint88_linear_295_1524" x1="283.339" y1="518.662" x2="286.034" y2="25.2094" gradientUnits="userSpaceOnUse">
<stop stop-color="#EC008C"/>
<stop offset="1" stop-color="#27AAE1"/>
</linearGradient>
<linearGradient id="paint89_linear_295_1524" x1="283.332" y1="519.414" x2="286.037" y2="24.461" gradientUnits="userSpaceOnUse">
<stop stop-color="#EC008C"/>
<stop offset="1" stop-color="#27AAE1"/>
</linearGradient>
<linearGradient id="paint90_linear_295_1524" x1="283.332" y1="519.414" x2="286.037" y2="24.461" gradientUnits="userSpaceOnUse">
<stop stop-color="#EC008C"/>
<stop offset="1" stop-color="#27AAE1"/>
</linearGradient>
<linearGradient id="paint91_linear_295_1524" x1="283.317" y1="521.931" x2="286.05" y2="21.9504" gradientUnits="userSpaceOnUse">
<stop stop-color="#EC008C"/>
<stop offset="1" stop-color="#27AAE1"/>
</linearGradient>
<linearGradient id="paint92_linear_295_1524" x1="283.317" y1="521.931" x2="286.05" y2="21.9504" gradientUnits="userSpaceOnUse">
<stop stop-color="#EC008C"/>
<stop offset="1" stop-color="#27AAE1"/>
</linearGradient>
<linearGradient id="paint93_linear_295_1524" x1="283.294" y1="525.202" x2="286.062" y2="18.6915" gradientUnits="userSpaceOnUse">
<stop stop-color="#EC008C"/>
<stop offset="1" stop-color="#27AAE1"/>
</linearGradient>
<linearGradient id="paint94_linear_295_1524" x1="283.294" y1="525.202" x2="286.062" y2="18.6915" gradientUnits="userSpaceOnUse">
<stop stop-color="#EC008C"/>
<stop offset="1" stop-color="#27AAE1"/>
</linearGradient>
<linearGradient id="paint95_linear_295_1524" x1="283.288" y1="525.957" x2="286.066" y2="17.9399" gradientUnits="userSpaceOnUse">
<stop stop-color="#EC008C"/>
<stop offset="1" stop-color="#27AAE1"/>
</linearGradient>
<linearGradient id="paint96_linear_295_1524" x1="283.278" y1="527.476" x2="286.071" y2="16.4242" gradientUnits="userSpaceOnUse">
<stop stop-color="#EC008C"/>
<stop offset="1" stop-color="#27AAE1"/>
</linearGradient>
<linearGradient id="paint97_linear_295_1524" x1="283.272" y1="528.351" x2="286.075" y2="15.5526" gradientUnits="userSpaceOnUse">
<stop stop-color="#EC008C"/>
<stop offset="1" stop-color="#27AAE1"/>
</linearGradient>
<linearGradient id="paint98_linear_295_1524" x1="283.272" y1="528.351" x2="286.075" y2="15.5526" gradientUnits="userSpaceOnUse">
<stop stop-color="#EC008C"/>
<stop offset="1" stop-color="#27AAE1"/>
</linearGradient>
<linearGradient id="paint99_linear_295_1524" x1="283.26" y1="529.989" x2="286.081" y2="13.9231" gradientUnits="userSpaceOnUse">
<stop stop-color="#EC008C"/>
<stop offset="1" stop-color="#27AAE1"/>
</linearGradient>
<linearGradient id="paint100_linear_295_1524" x1="283.26" y1="529.989" x2="286.081" y2="13.9231" gradientUnits="userSpaceOnUse">
<stop stop-color="#EC008C"/>
<stop offset="1" stop-color="#27AAE1"/>
</linearGradient>
<linearGradient id="paint101_linear_295_1524" x1="283.25" y1="531.625" x2="286.091" y2="12.2937" gradientUnits="userSpaceOnUse">
<stop stop-color="#EC008C"/>
<stop offset="1" stop-color="#27AAE1"/>
</linearGradient>
<linearGradient id="paint102_linear_295_1524" x1="283.25" y1="531.625" x2="286.091" y2="12.2937" gradientUnits="userSpaceOnUse">
<stop stop-color="#EC008C"/>
<stop offset="1" stop-color="#27AAE1"/>
</linearGradient>
<linearGradient id="paint103_linear_295_1524" x1="283.238" y1="533.261" x2="286.097" y2="10.661" gradientUnits="userSpaceOnUse">
<stop stop-color="#EC008C"/>
<stop offset="1" stop-color="#27AAE1"/>
</linearGradient>
<linearGradient id="paint104_linear_295_1524" x1="283.238" y1="533.261" x2="286.097" y2="10.661" gradientUnits="userSpaceOnUse">
<stop stop-color="#EC008C"/>
<stop offset="1" stop-color="#27AAE1"/>
</linearGradient>
<linearGradient id="paint105_linear_295_1524" x1="283.228" y1="534.897" x2="286.104" y2="9.03157" gradientUnits="userSpaceOnUse">
<stop stop-color="#EC008C"/>
<stop offset="1" stop-color="#27AAE1"/>
</linearGradient>
<linearGradient id="paint106_linear_295_1524" x1="283.215" y1="536.533" x2="286.11" y2="7.39895" gradientUnits="userSpaceOnUse">
<stop stop-color="#EC008C"/>
<stop offset="1" stop-color="#27AAE1"/>
</linearGradient>
<linearGradient id="paint107_linear_295_1524" x1="283.215" y1="536.533" x2="286.11" y2="7.39895" gradientUnits="userSpaceOnUse">
<stop stop-color="#EC008C"/>
<stop offset="1" stop-color="#27AAE1"/>
</linearGradient>
<linearGradient id="paint108_linear_295_1524" x1="283.206" y1="538.172" x2="286.116" y2="5.7695" gradientUnits="userSpaceOnUse">
<stop stop-color="#EC008C"/>
<stop offset="1" stop-color="#27AAE1"/>
</linearGradient>
<linearGradient id="paint109_linear_295_1524" x1="283.2" y1="539.046" x2="286.119" y2="4.89792" gradientUnits="userSpaceOnUse">
<stop stop-color="#EC008C"/>
<stop offset="1" stop-color="#27AAE1"/>
</linearGradient>
<linearGradient id="paint110_linear_295_1524" x1="283.19" y1="540.682" x2="286.126" y2="3.26845" gradientUnits="userSpaceOnUse">
<stop stop-color="#EC008C"/>
<stop offset="1" stop-color="#27AAE1"/>
</linearGradient>
<linearGradient id="paint111_linear_295_1524" x1="283.19" y1="540.682" x2="286.126" y2="3.26845" gradientUnits="userSpaceOnUse">
<stop stop-color="#EC008C"/>
<stop offset="1" stop-color="#27AAE1"/>
</linearGradient>
<linearGradient id="paint112_linear_295_1524" x1="283.184" y1="541.443" x2="286.129" y2="2.5074" gradientUnits="userSpaceOnUse">
<stop stop-color="#EC008C"/>
<stop offset="1" stop-color="#27AAE1"/>
</linearGradient>
<linearGradient id="paint113_linear_295_1524" x1="283.178" y1="542.318" x2="286.135" y2="1.63585" gradientUnits="userSpaceOnUse">
<stop stop-color="#EC008C"/>
<stop offset="1" stop-color="#27AAE1"/>
</linearGradient>
<linearGradient id="paint114_linear_295_1524" x1="283.171" y1="543.196" x2="286.138" y2="0.764251" gradientUnits="userSpaceOnUse">
<stop stop-color="#EC008C"/>
<stop offset="1" stop-color="#27AAE1"/>
</linearGradient>
<linearGradient id="paint115_linear_295_1524" x1="283.168" y1="543.954" x2="286.142" y2="0.00635351" gradientUnits="userSpaceOnUse">
<stop stop-color="#EC008C"/>
<stop offset="1" stop-color="#27AAE1"/>
</linearGradient>
</defs>
</svg>
