<svg width="12" height="14" viewBox="0 0 12 14" fill="none" xmlns="http://www.w3.org/2000/svg">
<path d="M6.94248 1.22401C7.06982 1.34701 7.1714 1.49414 7.24128 1.65681C7.31116 1.81948 7.34794 1.99444 7.34948 2.17148C7.35102 2.34852 7.31728 2.52409 7.25024 2.68795C7.1832 2.85181 7.08419 3.00068 6.959 3.12587C6.83381 3.25106 6.68494 3.35007 6.52108 3.41711C6.35722 3.48415 6.18165 3.51789 6.00461 3.51635C5.82757 3.51481 5.65261 3.47803 5.48994 3.40815C5.32727 3.33827 5.18014 3.23669 5.05714 3.10935C4.81427 2.85788 4.67987 2.52107 4.68291 2.17148C4.68595 1.82188 4.82618 1.48747 5.07339 1.24026C5.3206 0.993045 5.65501 0.85282 6.00461 0.849782C6.3542 0.846744 6.69101 0.981136 6.94248 1.22401" stroke="white" stroke-linecap="round" stroke-linejoin="round"/>
<path fill-rule="evenodd" clip-rule="evenodd" d="M8 3.5H4C3.73478 3.5 3.48043 3.60536 3.29289 3.79289C3.10536 3.98043 3 4.23478 3 4.5C3 4.76522 3.10536 5.01957 3.29289 5.20711C3.48043 5.39464 3.73478 5.5 4 5.5H8C8.26522 5.5 8.51957 5.39464 8.70711 5.20711C8.89464 5.01957 9 4.76522 9 4.5C9 4.23478 8.89464 3.98043 8.70711 3.79289C8.51957 3.60536 8.26522 3.5 8 3.5Z" stroke="white" stroke-linecap="round" stroke-linejoin="round"/>
<path d="M7.33325 5.5L8.66659 11.5" stroke="white" stroke-linecap="round" stroke-linejoin="round"/>
<path d="M3.33325 11.5L4.66659 5.5" stroke="white" stroke-linecap="round" stroke-linejoin="round"/>
<path fill-rule="evenodd" clip-rule="evenodd" d="M9.99992 13.5H1.99992C1.82311 13.5 1.65354 13.4298 1.52851 13.3047C1.40349 13.1797 1.33325 13.0101 1.33325 12.8333V12.5C1.33325 12.2348 1.43861 11.9804 1.62615 11.7929C1.81368 11.6054 2.06804 11.5 2.33325 11.5H9.66658C9.9318 11.5 10.1862 11.6054 10.3737 11.7929C10.5612 11.9804 10.6666 12.2348 10.6666 12.5V12.8333C10.6666 13.0101 10.5963 13.1797 10.4713 13.3047C10.3463 13.4298 10.1767 13.5 9.99992 13.5Z" stroke="white" stroke-linecap="round" stroke-linejoin="round"/>
</svg>
